G04*
G04 #@! TF.GenerationSoftware,Altium Limited,Altium Designer,20.0.12 (288)*
G04*
G04 Layer_Color=32896*
%FSLAX44Y44*%
%MOMM*%
G71*
G01*
G75*
%ADD11C,0.2540*%
%ADD13C,1.0000*%
D11*
X520000Y515000D02*
Y705000D01*
X390000Y515000D02*
X520000D01*
X390000D02*
Y705000D01*
X520000D01*
X389200Y195000D02*
X519200D01*
Y385000D01*
X389200D02*
X519200D01*
X389200Y195000D02*
Y385000D01*
X175000Y705000D02*
X305000D01*
X175000Y515000D02*
Y705000D01*
Y515000D02*
X305000D01*
Y705000D01*
X171700Y195000D02*
X301700D01*
Y385000D01*
X171700D02*
X301700D01*
X171700Y195000D02*
Y385000D01*
X300518Y409095D02*
Y396399D01*
X297979Y393860D01*
X292901D01*
X290361Y396399D01*
Y409095D01*
X277665Y393860D02*
Y409095D01*
X285283Y401478D01*
X275126D01*
X303712Y729245D02*
Y716549D01*
X301173Y714010D01*
X296095D01*
X293555Y716549D01*
Y729245D01*
X288477Y726706D02*
X285938Y729245D01*
X280860D01*
X278320Y726706D01*
Y724167D01*
X280860Y721628D01*
X283399D01*
X280860D01*
X278320Y719088D01*
Y716549D01*
X280860Y714010D01*
X285938D01*
X288477Y716549D01*
X517902Y409079D02*
Y396383D01*
X515363Y393844D01*
X510285D01*
X507745Y396383D01*
Y409079D01*
X492510Y393844D02*
X502667D01*
X492510Y404001D01*
Y406540D01*
X495049Y409079D01*
X500128D01*
X502667Y406540D01*
X519757Y731618D02*
Y718922D01*
X517217Y716383D01*
X512139D01*
X509600Y718922D01*
Y731618D01*
X504522Y716383D02*
X499443D01*
X501982D01*
Y731618D01*
X504522Y729079D01*
D13*
X0Y100000D02*
X805000D01*
X0Y800000D02*
X0Y100000D01*
X805000Y800000D02*
X805000Y100000D01*
X0Y800000D02*
X805000D01*
M02*
