G04*
G04 #@! TF.GenerationSoftware,Altium Limited,Altium Designer,20.0.12 (288)*
G04*
G04 Layer_Color=8421504*
%FSLAX44Y44*%
%MOMM*%
G71*
G01*
G75*
%ADD13C,1.0000*%
%ADD14R,1.1000X2.6000*%
%ADD15R,1.0000X1.2000*%
%ADD16R,0.9000X2.8500*%
%ADD17R,1.7800X0.7200*%
D13*
X0Y100000D02*
X805000D01*
X0Y800000D02*
X0Y100000D01*
X805000Y800000D02*
X805000Y100000D01*
X0Y800000D02*
X805000D01*
D14*
X216000Y450001D02*
D03*
X189000D02*
D03*
X406500Y417500D02*
D03*
X433500D02*
D03*
X406500Y572500D02*
D03*
X433500D02*
D03*
X294000Y615000D02*
D03*
X321001D02*
D03*
X264000Y300000D02*
D03*
X291000D02*
D03*
X321000Y682500D02*
D03*
X294000D02*
D03*
X433500Y462500D02*
D03*
X406500D02*
D03*
X247500Y175000D02*
D03*
X220500D02*
D03*
D15*
X437500Y537500D02*
D03*
X405500D02*
D03*
X322500Y645000D02*
D03*
X290500D02*
D03*
X292500Y255000D02*
D03*
X260500D02*
D03*
X320000Y557500D02*
D03*
X288000D02*
D03*
X405000Y505000D02*
D03*
X437000D02*
D03*
X315000Y432500D02*
D03*
X283000D02*
D03*
D16*
X424875Y261125D02*
D03*
X425125Y208875D02*
D03*
X425125Y641375D02*
D03*
X424875Y693625D02*
D03*
X127625Y601375D02*
D03*
X127375Y653625D02*
D03*
X125125Y211375D02*
D03*
X124875Y263625D02*
D03*
D17*
X278200Y520200D02*
D03*
Y507500D02*
D03*
Y494800D02*
D03*
Y482100D02*
D03*
X325000Y520200D02*
D03*
Y507500D02*
D03*
Y494800D02*
D03*
Y482100D02*
D03*
X275700Y390200D02*
D03*
Y377500D02*
D03*
Y364800D02*
D03*
Y352100D02*
D03*
X322500Y390200D02*
D03*
Y377500D02*
D03*
Y364800D02*
D03*
Y352100D02*
D03*
M02*
