G04*
G04 #@! TF.GenerationSoftware,Altium Limited,Altium Designer,20.0.12 (288)*
G04*
G04 Layer_Color=32768*
%FSLAX44Y44*%
%MOMM*%
G71*
G01*
G75*
%ADD13C,1.0000*%
%ADD34C,0.1000*%
D13*
X0Y100000D02*
X805000D01*
X0Y800000D02*
X0Y100000D01*
X805000Y800000D02*
X805000Y100000D01*
X0Y800000D02*
X805000D01*
D34*
X202500Y445000D02*
Y455000D01*
X197500Y450001D02*
X207500D01*
X182500Y436000D02*
X222500D01*
X182500Y464001D02*
X222500D01*
Y436000D02*
Y464001D01*
X182500Y436000D02*
Y464001D01*
X420000Y412500D02*
Y422500D01*
X415000Y417500D02*
X425000D01*
X400000Y431500D02*
X440000D01*
X400000Y403500D02*
X440000D01*
X400000D02*
Y431500D01*
X440000Y403500D02*
Y431500D01*
X444500Y529500D02*
Y545500D01*
X398500Y529500D02*
Y545500D01*
Y529500D02*
X444500D01*
X398500Y545500D02*
X444500D01*
X329500Y637000D02*
Y653000D01*
X283500Y637000D02*
Y653000D01*
Y637000D02*
X329500D01*
X283500Y653000D02*
X329500D01*
X400000Y558500D02*
Y586500D01*
X440000Y558500D02*
Y586500D01*
X400000D02*
X440000D01*
X400000Y558500D02*
X440000D01*
X415000Y572500D02*
X425000D01*
X420000Y567500D02*
Y577500D01*
X287500Y601000D02*
Y629000D01*
X327500Y601000D02*
Y629000D01*
X287500D02*
X327500D01*
X287500Y601000D02*
X327500D01*
X302500Y615000D02*
X312500D01*
X307500Y610000D02*
Y620000D01*
X253500Y247000D02*
X299500D01*
X253500Y263000D02*
X299500D01*
Y247000D02*
Y263000D01*
X253500Y247000D02*
Y263000D01*
X277500Y295000D02*
Y305000D01*
X272500Y300000D02*
X282500D01*
X257500Y314000D02*
X297500D01*
X257500Y286000D02*
X297500D01*
X257500D02*
Y314000D01*
X297500Y286000D02*
Y314000D01*
X281000Y549500D02*
X327000D01*
X281000Y565500D02*
X327000D01*
Y549500D02*
Y565500D01*
X281000Y549500D02*
Y565500D01*
X307500Y677500D02*
Y687500D01*
X302500Y682500D02*
X312500D01*
X287500Y668500D02*
X327500D01*
X287500Y696500D02*
X327500D01*
Y668500D02*
Y696500D01*
X287500Y668500D02*
Y696500D01*
X420000Y457500D02*
Y467500D01*
X415000Y462500D02*
X425000D01*
X400000Y448500D02*
X440000D01*
X400000Y476500D02*
X440000D01*
Y448500D02*
Y476500D01*
X400000Y448500D02*
Y476500D01*
X398000Y513000D02*
X444000D01*
X398000Y497000D02*
X444000D01*
X398000D02*
Y513000D01*
X444000Y497000D02*
Y513000D01*
X276000Y424500D02*
X322000D01*
X276000Y440500D02*
X322000D01*
Y424500D02*
Y440500D01*
X276000Y424500D02*
Y440500D01*
X254000Y161000D02*
Y189000D01*
X214000Y161000D02*
Y189000D01*
Y161000D02*
X254000D01*
X214000Y189000D02*
X254000D01*
X229000Y175000D02*
X239000D01*
X234000Y170000D02*
Y180000D01*
M02*
