G04*
G04 #@! TF.GenerationSoftware,Altium Limited,Altium Designer,20.0.12 (288)*
G04*
G04 Layer_Color=255*
%FSLAX44Y44*%
%MOMM*%
G71*
G01*
G75*
%ADD13C,1.0000*%
%ADD28C,1.2000*%
%ADD29R,1.2000X1.2000*%
%ADD30C,4.5000*%
%ADD31C,1.5240*%
%ADD32C,3.0000*%
%ADD34R,11.4300X8.8900*%
%ADD35R,2.0800X3.8100*%
D13*
X0Y100000D02*
X805000D01*
X0Y800000D02*
X0Y100000D01*
X805000Y800000D02*
X805000Y100000D01*
X0Y800000D02*
X805000D01*
D28*
X637500Y374500D02*
D03*
D29*
Y430500D02*
D03*
D30*
X762500Y712500D02*
D03*
Y582500D02*
D03*
X752500Y322500D02*
D03*
Y192500D02*
D03*
D31*
X27500Y772500D02*
D03*
X90000Y372500D02*
D03*
Y397500D02*
D03*
Y422500D02*
D03*
Y447500D02*
D03*
Y472500D02*
D03*
X27500Y127500D02*
D03*
X777500D02*
D03*
Y772500D02*
D03*
D32*
X635000Y510000D02*
D03*
Y720000D02*
D03*
D34*
X454600Y656500D02*
D03*
Y243500D02*
D03*
X239600Y656500D02*
D03*
X237100Y243500D02*
D03*
D35*
X429200Y540000D02*
D03*
X480000D02*
D03*
X429200Y360000D02*
D03*
X480000D02*
D03*
X265000Y540000D02*
D03*
X214200D02*
D03*
X211700Y360000D02*
D03*
X262500D02*
D03*
M02*
