G04*
G04 #@! TF.GenerationSoftware,Altium Limited,Altium Designer,20.0.12 (288)*
G04*
G04 Layer_Color=16711935*
%FSLAX44Y44*%
%MOMM*%
G71*
G01*
G75*
%ADD13C,1.0000*%
%ADD34C,0.1000*%
D13*
X0Y100000D02*
X805000D01*
X0Y800000D02*
X0Y100000D01*
X805000Y800000D02*
X805000Y100000D01*
X0Y800000D02*
X805000D01*
D34*
X185750Y436800D02*
X219250D01*
X185750Y463200D02*
X219250D01*
Y436800D02*
Y463200D01*
X185750Y436800D02*
Y463200D01*
X403250Y430700D02*
X436750D01*
X403250Y404300D02*
X436750D01*
X403250D02*
Y430700D01*
X436750Y404300D02*
Y430700D01*
X403251Y559300D02*
Y585700D01*
X436750Y559300D02*
Y585700D01*
X403251D02*
X436750D01*
X403251Y559300D02*
X436750D01*
X290750Y601800D02*
Y628200D01*
X324250Y601800D02*
Y628200D01*
X290750D02*
X324250D01*
X290750Y601800D02*
X324250D01*
X260750Y313200D02*
X294250D01*
X260750Y286800D02*
X294250D01*
X260750D02*
Y313200D01*
X294250Y286800D02*
Y313200D01*
X290750Y669300D02*
X324250D01*
X290750Y695700D02*
X324250D01*
Y669300D02*
Y695700D01*
X290750Y669300D02*
Y695700D01*
X403250Y449300D02*
X436750D01*
X403250Y475700D02*
X436750D01*
Y449300D02*
Y475700D01*
X403250Y449300D02*
Y475700D01*
X250750Y161800D02*
Y188200D01*
X217250Y161800D02*
Y188200D01*
Y161800D02*
X250750D01*
X217250Y188200D02*
X250750D01*
M02*
