G04*
G04 #@! TF.GenerationSoftware,Altium Limited,Altium Designer,20.0.12 (288)*
G04*
G04 Layer_Physical_Order=1*
G04 Layer_Color=255*
%FSLAX44Y44*%
%MOMM*%
G71*
G01*
G75*
%ADD11C,0.2540*%
%ADD13C,1.0000*%
%ADD14R,1.1000X2.6000*%
%ADD15R,1.0000X1.2000*%
%ADD16R,0.9000X2.8500*%
%ADD17R,1.7800X0.7200*%
%ADD28C,1.2000*%
%ADD29R,1.2000X1.2000*%
%ADD30C,4.5000*%
%ADD31C,1.5240*%
%ADD32C,3.0000*%
%ADD33C,1.2700*%
G36*
X805000Y100000D02*
X0D01*
Y800000D01*
X805000D01*
Y100000D01*
D02*
G37*
%LPC*%
G36*
X777500Y790125D02*
X774062Y789786D01*
X770755Y788783D01*
X767708Y787154D01*
X765037Y784963D01*
X762846Y782292D01*
X761217Y779245D01*
X760214Y775938D01*
X759875Y772500D01*
X760214Y769062D01*
X761217Y765755D01*
X762846Y762708D01*
X765037Y760037D01*
X767708Y757846D01*
X770755Y756217D01*
X774062Y755214D01*
X777500Y754875D01*
X780938Y755214D01*
X784245Y756217D01*
X787292Y757846D01*
X789963Y760037D01*
X792154Y762708D01*
X793783Y765755D01*
X794786Y769062D01*
X795125Y772500D01*
X794786Y775938D01*
X793783Y779245D01*
X792154Y782292D01*
X789963Y784963D01*
X787292Y787154D01*
X784245Y788783D01*
X780938Y789786D01*
X777500Y790125D01*
D02*
G37*
G36*
X27500D02*
X24062Y789786D01*
X20755Y788783D01*
X17708Y787154D01*
X15037Y784963D01*
X12845Y782292D01*
X11217Y779245D01*
X10214Y775938D01*
X9875Y772500D01*
X10214Y769062D01*
X11217Y765755D01*
X12845Y762708D01*
X15037Y760037D01*
X17708Y757846D01*
X20755Y756217D01*
X24062Y755214D01*
X27500Y754875D01*
X30938Y755214D01*
X34245Y756217D01*
X37292Y757846D01*
X39963Y760037D01*
X42154Y762708D01*
X43783Y765755D01*
X44786Y769062D01*
X45125Y772500D01*
X44786Y775938D01*
X43783Y779245D01*
X42154Y782292D01*
X39963Y784963D01*
X37292Y787154D01*
X34245Y788783D01*
X30938Y789786D01*
X27500Y790125D01*
D02*
G37*
G36*
X635000Y737625D02*
X631562Y737287D01*
X628255Y736284D01*
X625208Y734655D01*
X622537Y732463D01*
X620345Y729792D01*
X618717Y726745D01*
X617714Y723439D01*
X617375Y720000D01*
X617714Y716562D01*
X618717Y713256D01*
X620345Y710209D01*
X622537Y707538D01*
X625208Y705346D01*
X628255Y703717D01*
X631562Y702714D01*
X635000Y702375D01*
X638438Y702714D01*
X641745Y703717D01*
X644792Y705346D01*
X647463Y707538D01*
X649654Y710209D01*
X651283Y713256D01*
X652286Y716562D01*
X652625Y720000D01*
X652286Y723439D01*
X651283Y726745D01*
X649654Y729792D01*
X647463Y732463D01*
X644792Y734655D01*
X641745Y736284D01*
X638438Y737287D01*
X635000Y737625D01*
D02*
G37*
G36*
X358512Y777872D02*
X131488D01*
X130001Y777577D01*
X128741Y776735D01*
X22253Y670247D01*
X21411Y668987D01*
X21115Y667500D01*
Y173988D01*
X21411Y172501D01*
X22253Y171241D01*
X23741Y169753D01*
X25001Y168911D01*
X26488Y168615D01*
X212460D01*
Y159460D01*
X228540D01*
Y190540D01*
X212460D01*
Y176385D01*
X28885D01*
Y665891D01*
X133097Y770103D01*
X356115D01*
Y666385D01*
X331342D01*
X329040Y666960D01*
X329040Y668925D01*
Y698040D01*
X312960D01*
Y674655D01*
X306158D01*
X304672Y674359D01*
X304580Y674298D01*
X302040Y675656D01*
Y698040D01*
X285960D01*
Y672454D01*
X211805Y598299D01*
X210517Y597765D01*
X208660Y596340D01*
X207235Y594483D01*
X206339Y592321D01*
X206033Y590000D01*
X206339Y587679D01*
X207235Y585517D01*
X208660Y583660D01*
X210517Y582235D01*
X212679Y581339D01*
X215000Y581033D01*
X217321Y581339D01*
X219483Y582235D01*
X221340Y583660D01*
X222765Y585517D01*
X223661Y587679D01*
X223967Y590000D01*
X223661Y592321D01*
X222765Y594483D01*
X221340Y596340D01*
X221309Y596816D01*
X256075Y631582D01*
X258615Y630530D01*
Y598013D01*
X258017Y597766D01*
X256160Y596340D01*
X254735Y594483D01*
X253839Y592321D01*
X253533Y590000D01*
X253839Y587679D01*
X254735Y585517D01*
X256160Y583660D01*
X258017Y582235D01*
X260179Y581339D01*
X262500Y581033D01*
X264821Y581339D01*
X266983Y582235D01*
X268841Y583660D01*
X270266Y585517D01*
X271161Y587679D01*
X271467Y590000D01*
X271161Y592321D01*
X270266Y594483D01*
X268841Y596340D01*
X266983Y597766D01*
X266385Y598013D01*
Y631779D01*
X280613Y646008D01*
X282960Y645035D01*
Y636460D01*
X286616D01*
Y630540D01*
X285960D01*
Y599460D01*
X290116D01*
Y567888D01*
X287893Y566040D01*
X280460D01*
Y561385D01*
X253374D01*
X252927Y561646D01*
X251309Y563800D01*
X251467Y565000D01*
X251161Y567321D01*
X250265Y569483D01*
X248840Y571340D01*
X246983Y572765D01*
X244821Y573661D01*
X242500Y573967D01*
X240179Y573661D01*
X238017Y572765D01*
X236160Y571340D01*
X234735Y569483D01*
X233839Y567321D01*
X233533Y565000D01*
X233839Y562679D01*
X234735Y560517D01*
X236160Y558660D01*
X238017Y557235D01*
X240179Y556339D01*
X242500Y556033D01*
X244821Y556339D01*
X245419Y556587D01*
X247253Y554753D01*
X248513Y553911D01*
X250000Y553615D01*
X280460D01*
Y548960D01*
X282452D01*
X283426Y546420D01*
X279899Y542893D01*
X279057Y541633D01*
X278761Y540146D01*
Y526340D01*
X266760D01*
Y516180D01*
X266760Y514060D01*
X266760D01*
Y513640D01*
X266760D01*
Y508885D01*
X122500D01*
X121013Y508589D01*
X119753Y507747D01*
X93891Y481885D01*
X92652Y482398D01*
X90000Y482748D01*
X87348Y482398D01*
X84876Y481375D01*
X82754Y479746D01*
X81125Y477624D01*
X80101Y475152D01*
X79752Y472500D01*
X80101Y469848D01*
X81125Y467376D01*
X82754Y465254D01*
X84876Y463625D01*
X87348Y462601D01*
X90000Y462252D01*
X92652Y462601D01*
X95124Y463625D01*
X97246Y465254D01*
X98875Y467376D01*
X99899Y469848D01*
X100248Y472500D01*
X99899Y475152D01*
X99385Y476391D01*
X124109Y501115D01*
X264293D01*
X264372Y501110D01*
X266760Y500367D01*
Y496385D01*
X135000D01*
X133514Y496089D01*
X132254Y495247D01*
X93891Y456885D01*
X92652Y457398D01*
X90000Y457747D01*
X87348Y457398D01*
X84876Y456374D01*
X82754Y454746D01*
X81125Y452623D01*
X80101Y450152D01*
X79752Y447500D01*
X80101Y444847D01*
X81125Y442376D01*
X82754Y440253D01*
X84876Y438625D01*
X87348Y437601D01*
X90000Y437252D01*
X92652Y437601D01*
X95124Y438625D01*
X97246Y440253D01*
X98875Y442376D01*
X99899Y444847D01*
X100248Y447500D01*
X99899Y450152D01*
X99385Y451391D01*
X136609Y488615D01*
X275900D01*
X276124Y488660D01*
X287025D01*
Y478531D01*
X280253Y471759D01*
X279411Y470499D01*
X279115Y469012D01*
Y441040D01*
X275460D01*
Y423960D01*
X276115D01*
Y396340D01*
X269754D01*
X263347Y402747D01*
X262087Y403589D01*
X260600Y403885D01*
X245513D01*
X245265Y404483D01*
X243840Y406340D01*
X241983Y407765D01*
X239821Y408661D01*
X237500Y408967D01*
X235179Y408661D01*
X233017Y407765D01*
X231160Y406340D01*
X229735Y404483D01*
X228839Y402321D01*
X228533Y400000D01*
X228839Y397679D01*
X229735Y395517D01*
X231160Y393660D01*
X233017Y392235D01*
X235179Y391339D01*
X237500Y391033D01*
X239821Y391339D01*
X241983Y392235D01*
X243840Y393660D01*
X245265Y395517D01*
X245513Y396115D01*
X258991D01*
X264260Y390846D01*
X264260Y383181D01*
X262464Y381385D01*
X136609D01*
X99385Y418609D01*
X99899Y419848D01*
X100248Y422500D01*
X99899Y425152D01*
X98875Y427624D01*
X97246Y429746D01*
X95124Y431375D01*
X92652Y432398D01*
X90000Y432748D01*
X87348Y432398D01*
X84876Y431375D01*
X82754Y429746D01*
X81125Y427624D01*
X80101Y425152D01*
X79752Y422500D01*
X80101Y419848D01*
X81125Y417376D01*
X82754Y415254D01*
X84876Y413625D01*
X87348Y412602D01*
X90000Y412252D01*
X92652Y412602D01*
X93891Y413115D01*
X132253Y374753D01*
X133513Y373911D01*
X135000Y373615D01*
X262464D01*
X263986Y372094D01*
X264160Y371401D01*
X263011Y368885D01*
X124109D01*
X99385Y393608D01*
X99899Y394847D01*
X100248Y397500D01*
X99899Y400152D01*
X98875Y402624D01*
X97246Y404746D01*
X95124Y406375D01*
X92652Y407398D01*
X90000Y407747D01*
X87348Y407398D01*
X84876Y406375D01*
X82754Y404746D01*
X81125Y402624D01*
X80101Y400152D01*
X79752Y397500D01*
X80101Y394847D01*
X81125Y392376D01*
X82754Y390254D01*
X84876Y388625D01*
X87348Y387601D01*
X90000Y387252D01*
X92652Y387601D01*
X93891Y388115D01*
X119753Y362253D01*
X121013Y361411D01*
X122500Y361115D01*
X264260D01*
Y358660D01*
X287140D01*
Y368820D01*
X287140Y370940D01*
X287140Y373480D01*
Y381520D01*
X287140Y383640D01*
X287140Y386180D01*
Y396340D01*
X283885D01*
Y423960D01*
X290540D01*
Y441040D01*
X286885D01*
Y467403D01*
X293657Y474175D01*
X294499Y475435D01*
X294795Y476922D01*
Y512790D01*
X294499Y514277D01*
X293657Y515537D01*
X289640Y519554D01*
Y526340D01*
X286531D01*
Y538537D01*
X290747Y542753D01*
X291589Y544013D01*
X291885Y545500D01*
Y547000D01*
X291885Y547000D01*
Y548960D01*
X295540D01*
Y557536D01*
X297887Y558508D01*
X301800Y554594D01*
Y521515D01*
X302096Y520028D01*
X302938Y518768D01*
X313560Y508146D01*
X313560Y501360D01*
X313560Y498820D01*
Y494154D01*
X309543Y490137D01*
X308701Y488877D01*
X308405Y487390D01*
Y476922D01*
X308701Y475435D01*
X309543Y474175D01*
X339521Y444197D01*
X340781Y443355D01*
X341263Y443259D01*
X341339Y442679D01*
X342235Y440517D01*
X343660Y438660D01*
X345517Y437235D01*
X347679Y436339D01*
X350000Y436033D01*
X352321Y436339D01*
X354483Y437235D01*
X356340Y438660D01*
X357765Y440517D01*
X358661Y442679D01*
X358967Y445000D01*
X358661Y447321D01*
X357765Y449483D01*
X356340Y451340D01*
X354483Y452765D01*
X352321Y453661D01*
X350000Y453967D01*
X347679Y453661D01*
X345517Y452765D01*
X343660Y451340D01*
X343383Y451322D01*
X321092Y473613D01*
X322064Y475960D01*
X336440D01*
Y478615D01*
X342500D01*
X343987Y478911D01*
X345247Y479753D01*
X367747Y502253D01*
X368589Y503513D01*
X368885Y505000D01*
Y510891D01*
X371044Y513050D01*
X372285Y512776D01*
X373598Y512012D01*
X373839Y510179D01*
X374735Y508017D01*
X376160Y506160D01*
X378017Y504735D01*
X380179Y503839D01*
X382500Y503533D01*
X384821Y503839D01*
X386983Y504735D01*
X388840Y506160D01*
X390265Y508017D01*
X391161Y510179D01*
X391467Y512500D01*
X391161Y514821D01*
X390913Y515419D01*
X394109Y518615D01*
X418891D01*
X429460Y508046D01*
Y496460D01*
X431115D01*
Y478040D01*
X425460D01*
Y446960D01*
X441540D01*
Y478040D01*
X438885D01*
Y496460D01*
X444540D01*
Y513540D01*
X434954D01*
X423247Y525247D01*
X421987Y526089D01*
X420500Y526385D01*
X392500D01*
X391013Y526089D01*
X389753Y525247D01*
X385419Y520913D01*
X384821Y521161D01*
X382988Y521402D01*
X382224Y522715D01*
X381950Y523956D01*
X391609Y533615D01*
X397960D01*
Y528960D01*
X413040D01*
Y546040D01*
X410385D01*
Y556960D01*
X414540D01*
Y588040D01*
X406964D01*
X405992Y590387D01*
X409221Y593615D01*
X440000D01*
X441487Y593911D01*
X442747Y594753D01*
X507747Y659753D01*
X508589Y661013D01*
X508885Y662500D01*
Y688512D01*
X508589Y689999D01*
X507747Y691259D01*
X506259Y692747D01*
X504999Y693589D01*
X503512Y693885D01*
X431915D01*
Y710415D01*
X417835D01*
Y676835D01*
X431915D01*
Y686115D01*
X501115D01*
Y664109D01*
X438391Y601385D01*
X407612D01*
X406126Y601089D01*
X404865Y600247D01*
X347253Y542635D01*
X346411Y541375D01*
X346115Y539888D01*
Y509109D01*
X338980Y501974D01*
X336440Y503026D01*
X336440Y511520D01*
X336440Y513640D01*
X336440D01*
Y514060D01*
X336440D01*
Y526340D01*
X328885D01*
Y551500D01*
X330991Y553615D01*
X337365D01*
X338852Y553911D01*
X340112Y554753D01*
X409869Y624510D01*
X421895D01*
X422270Y624585D01*
X432165D01*
Y658165D01*
X418085D01*
Y632279D01*
X408260D01*
X406773Y631984D01*
X405513Y631142D01*
X335756Y561385D01*
X327540D01*
Y566040D01*
X312460D01*
Y548960D01*
X321115D01*
Y526340D01*
X313560D01*
Y522663D01*
X311329Y521708D01*
X309570Y523156D01*
Y556203D01*
X309274Y557690D01*
X308432Y558950D01*
X297885Y569497D01*
Y599460D01*
X302040D01*
Y630540D01*
X294385D01*
Y636460D01*
X298040D01*
Y653540D01*
X291464D01*
X290492Y655886D01*
X292395Y657789D01*
X297062D01*
X298549Y658085D01*
X299809Y658927D01*
X305846Y664964D01*
X305873Y664959D01*
X306709Y662203D01*
X304753Y660247D01*
X303911Y658987D01*
X303615Y657500D01*
Y636000D01*
X303911Y634514D01*
X304753Y633253D01*
X312960Y625046D01*
Y599460D01*
X324855D01*
X325230Y599385D01*
X332621D01*
X336587Y595420D01*
X336339Y594821D01*
X336033Y592500D01*
X336339Y590179D01*
X337235Y588017D01*
X338660Y586160D01*
X340517Y584735D01*
X342679Y583839D01*
X345000Y583533D01*
X347321Y583839D01*
X349483Y584735D01*
X351340Y586160D01*
X352765Y588017D01*
X353661Y590179D01*
X353967Y592500D01*
X353661Y594821D01*
X352765Y596983D01*
X351340Y598840D01*
X349483Y600265D01*
X347321Y601161D01*
X345000Y601467D01*
X342679Y601161D01*
X342080Y600913D01*
X336977Y606017D01*
X335717Y606859D01*
X334230Y607155D01*
X329040D01*
Y630540D01*
X324885D01*
Y636460D01*
X330040D01*
Y653540D01*
X314960D01*
Y639355D01*
X312420Y638083D01*
X311385Y638857D01*
Y655891D01*
X314109Y658615D01*
X358512D01*
X359999Y658911D01*
X361259Y659753D01*
X362747Y661241D01*
X363589Y662501D01*
X363885Y663988D01*
Y772500D01*
X363589Y773987D01*
X362747Y775247D01*
X361259Y776735D01*
X359999Y777577D01*
X358512Y777872D01*
D02*
G37*
G36*
X130000Y738967D02*
X127679Y738661D01*
X125517Y737765D01*
X123660Y736340D01*
X122235Y734483D01*
X121339Y732321D01*
X121033Y730000D01*
X121339Y727679D01*
X122235Y725517D01*
X123660Y723660D01*
X125517Y722235D01*
X126115Y721987D01*
Y670415D01*
X120335D01*
Y636835D01*
X134415D01*
Y670415D01*
X133885D01*
Y721987D01*
X134483Y722235D01*
X136340Y723660D01*
X137765Y725517D01*
X138661Y727679D01*
X138967Y730000D01*
X138661Y732321D01*
X137765Y734483D01*
X136340Y736340D01*
X134483Y737765D01*
X132321Y738661D01*
X130000Y738967D01*
D02*
G37*
G36*
X55000Y636467D02*
X52679Y636161D01*
X50517Y635266D01*
X48660Y633840D01*
X47235Y631983D01*
X46339Y629821D01*
X46033Y627500D01*
X46339Y625179D01*
X47235Y623017D01*
X48660Y621160D01*
X50517Y619735D01*
X52679Y618839D01*
X55000Y618533D01*
X57321Y618839D01*
X59483Y619735D01*
X61340Y621160D01*
X62765Y623017D01*
X63661Y625179D01*
X63967Y627500D01*
X63661Y629821D01*
X62765Y631983D01*
X61340Y633840D01*
X59483Y635266D01*
X57321Y636161D01*
X55000Y636467D01*
D02*
G37*
G36*
X762500Y607661D02*
X757591Y607178D01*
X752871Y605746D01*
X748521Y603421D01*
X744708Y600292D01*
X741579Y596479D01*
X739254Y592129D01*
X737822Y587409D01*
X737339Y582500D01*
X737822Y577591D01*
X739254Y572871D01*
X741579Y568521D01*
X744708Y564708D01*
X748521Y561579D01*
X752871Y559254D01*
X757591Y557822D01*
X762500Y557339D01*
X767409Y557822D01*
X772129Y559254D01*
X776479Y561579D01*
X780292Y564708D01*
X783421Y568521D01*
X785746Y572871D01*
X787178Y577591D01*
X787661Y582500D01*
X787178Y587409D01*
X785746Y592129D01*
X783421Y596479D01*
X780292Y600292D01*
X776479Y603421D01*
X772129Y605746D01*
X767409Y607178D01*
X762500Y607661D01*
D02*
G37*
G36*
X635000Y527625D02*
X631562Y527286D01*
X628255Y526283D01*
X625208Y524655D01*
X622537Y522463D01*
X620345Y519792D01*
X618717Y516745D01*
X617714Y513439D01*
X617375Y510000D01*
X617714Y506562D01*
X618717Y503256D01*
X620345Y500208D01*
X622537Y497538D01*
X625208Y495346D01*
X628255Y493717D01*
X631562Y492714D01*
X635000Y492375D01*
X638438Y492714D01*
X641745Y493717D01*
X644792Y495346D01*
X647463Y497538D01*
X649654Y500208D01*
X651283Y503256D01*
X652286Y506562D01*
X652625Y510000D01*
X652286Y513439D01*
X651283Y516745D01*
X649654Y519792D01*
X647463Y522463D01*
X644792Y524655D01*
X641745Y526283D01*
X638438Y527286D01*
X635000Y527625D01*
D02*
G37*
G36*
X646040Y439040D02*
X628960D01*
Y421960D01*
X646040D01*
Y439040D01*
D02*
G37*
G36*
X197040Y465541D02*
X180960D01*
Y434461D01*
X185116D01*
Y428500D01*
X185411Y427013D01*
X186253Y425753D01*
X196587Y415419D01*
X196339Y414821D01*
X196033Y412500D01*
X196339Y410179D01*
X197235Y408017D01*
X198660Y406160D01*
X200517Y404735D01*
X202679Y403839D01*
X205000Y403533D01*
X207321Y403839D01*
X209483Y404735D01*
X211340Y406160D01*
X212765Y408017D01*
X213661Y410179D01*
X213967Y412500D01*
X213661Y414821D01*
X212765Y416983D01*
X211340Y418840D01*
X209483Y420265D01*
X207321Y421161D01*
X205000Y421467D01*
X202679Y421161D01*
X202080Y420913D01*
X192885Y430109D01*
Y434461D01*
X197040D01*
Y465541D01*
D02*
G37*
G36*
X441540Y588040D02*
X425460D01*
Y556960D01*
X429616D01*
Y542500D01*
X429911Y541013D01*
X429960Y540940D01*
Y528960D01*
X439546D01*
X478615Y489891D01*
Y441385D01*
X429612D01*
X428125Y441089D01*
X426865Y440247D01*
X419732Y433114D01*
X410730D01*
X410355Y433040D01*
X398460D01*
Y409654D01*
X390770D01*
X389283Y409359D01*
X388023Y408517D01*
X380420Y400913D01*
X379821Y401161D01*
X377500Y401467D01*
X375179Y401161D01*
X373017Y400265D01*
X371160Y398840D01*
X369735Y396983D01*
X368839Y394821D01*
X368533Y392500D01*
X368839Y390179D01*
X369735Y388017D01*
X371160Y386160D01*
X373017Y384735D01*
X375179Y383839D01*
X377500Y383533D01*
X379821Y383839D01*
X381983Y384735D01*
X383840Y386160D01*
X385265Y388017D01*
X386161Y390179D01*
X386467Y392500D01*
X386161Y394821D01*
X385913Y395420D01*
X392379Y401885D01*
X402270D01*
X402645Y401960D01*
X414540D01*
Y425345D01*
X421341D01*
X422828Y425641D01*
X424088Y426483D01*
X431221Y433615D01*
X481012D01*
X482499Y433911D01*
X483759Y434753D01*
X485247Y436241D01*
X486089Y437501D01*
X486385Y438988D01*
Y491500D01*
X486089Y492987D01*
X485247Y494247D01*
X445040Y534454D01*
Y546040D01*
X437385D01*
Y556960D01*
X441540D01*
Y588040D01*
D02*
G37*
G36*
X412540Y513540D02*
X397460D01*
Y496460D01*
X401115D01*
Y478040D01*
X398460D01*
Y452454D01*
X336287Y390281D01*
X333940Y391253D01*
Y396340D01*
X318885D01*
Y423960D01*
X322540D01*
Y441040D01*
X307460D01*
Y423960D01*
X311115D01*
Y396340D01*
X311060D01*
Y389554D01*
X307043Y385537D01*
X306201Y384277D01*
X305905Y382790D01*
Y346922D01*
X306201Y345435D01*
X307043Y344175D01*
X371465Y279753D01*
X372725Y278911D01*
X374212Y278615D01*
X415585D01*
X417835Y277915D01*
Y244335D01*
X431915D01*
Y277915D01*
X428760D01*
Y281012D01*
X428464Y282499D01*
X427622Y283759D01*
X426134Y285247D01*
X424874Y286089D01*
X423387Y286385D01*
X375821D01*
X318592Y343613D01*
X319564Y345960D01*
X328446D01*
X331444Y342962D01*
X331179Y342321D01*
X330873Y340000D01*
X331179Y337679D01*
X332075Y335517D01*
X333500Y333660D01*
X335357Y332235D01*
X337519Y331339D01*
X339840Y331033D01*
X342161Y331339D01*
X344323Y332235D01*
X346180Y333660D01*
X347605Y335517D01*
X348501Y337679D01*
X348807Y340000D01*
X348501Y342321D01*
X347915Y343735D01*
X349132Y346275D01*
X416743D01*
X463615Y299403D01*
Y262609D01*
X426671Y225665D01*
X418085D01*
Y201385D01*
X368013D01*
X367765Y201983D01*
X366340Y203840D01*
X364483Y205265D01*
X362321Y206161D01*
X360000Y206467D01*
X357679Y206161D01*
X355517Y205265D01*
X353660Y203840D01*
X352235Y201983D01*
X351339Y199821D01*
X351033Y197500D01*
X351339Y195179D01*
X352235Y193017D01*
X353660Y191160D01*
X355517Y189735D01*
X357679Y188839D01*
X360000Y188533D01*
X362321Y188839D01*
X364483Y189735D01*
X366340Y191160D01*
X367765Y193017D01*
X368013Y193615D01*
X418085D01*
Y192085D01*
X432165D01*
Y220171D01*
X470247Y258253D01*
X471089Y259513D01*
X471385Y261000D01*
Y301012D01*
X471089Y302499D01*
X470247Y303759D01*
X421099Y352907D01*
X419839Y353749D01*
X418352Y354045D01*
X344049D01*
X333940Y364154D01*
Y370940D01*
X333940D01*
Y371360D01*
X333940D01*
Y376992D01*
X334076Y377083D01*
X403954Y446960D01*
X414540D01*
Y478040D01*
X408885D01*
Y496460D01*
X412540D01*
Y513540D01*
D02*
G37*
G36*
X237500Y348967D02*
X235179Y348661D01*
X233017Y347765D01*
X231160Y346340D01*
X229735Y344483D01*
X228839Y342321D01*
X228533Y340000D01*
X228839Y337679D01*
X229087Y337081D01*
X172496Y280490D01*
X128105D01*
X127730Y280415D01*
X117835D01*
Y246835D01*
X131915D01*
Y272720D01*
X174105D01*
X175592Y273016D01*
X176852Y273858D01*
X206638Y303644D01*
X208702Y302403D01*
X208829Y302243D01*
X208533Y300000D01*
X208839Y297679D01*
X209735Y295517D01*
X211160Y293660D01*
X213017Y292235D01*
X215179Y291339D01*
X217500Y291033D01*
X219821Y291339D01*
X221983Y292235D01*
X223840Y293660D01*
X225265Y295517D01*
X225513Y296115D01*
X255960D01*
Y284460D01*
X260115D01*
Y263540D01*
X252960D01*
Y246460D01*
X268040D01*
Y263540D01*
X267885D01*
Y284460D01*
X272040D01*
Y315540D01*
X255960D01*
Y303885D01*
X225513D01*
X225265Y304483D01*
X223840Y306340D01*
X221983Y307765D01*
X219821Y308661D01*
X217500Y308967D01*
X215257Y308671D01*
X215097Y308798D01*
X213856Y310862D01*
X234581Y331587D01*
X235179Y331339D01*
X237500Y331033D01*
X239821Y331339D01*
X241983Y332235D01*
X243840Y333660D01*
X245265Y335517D01*
X246161Y337679D01*
X246467Y340000D01*
X246161Y342321D01*
X245265Y344483D01*
X243840Y346340D01*
X241983Y347765D01*
X239821Y348661D01*
X237500Y348967D01*
D02*
G37*
G36*
X752500Y347661D02*
X747591Y347178D01*
X742871Y345746D01*
X738521Y343421D01*
X734708Y340292D01*
X731579Y336479D01*
X729254Y332129D01*
X727822Y327409D01*
X727339Y322500D01*
X727822Y317591D01*
X729254Y312871D01*
X731579Y308521D01*
X734708Y304708D01*
X738521Y301579D01*
X742871Y299254D01*
X747591Y297822D01*
X752500Y297339D01*
X757409Y297822D01*
X762129Y299254D01*
X766479Y301579D01*
X770292Y304708D01*
X773421Y308521D01*
X775746Y312871D01*
X777178Y317591D01*
X777661Y322500D01*
X777178Y327409D01*
X775746Y332129D01*
X773421Y336479D01*
X770292Y340292D01*
X766479Y343421D01*
X762129Y345746D01*
X757409Y347178D01*
X752500Y347661D01*
D02*
G37*
G36*
X299040Y315540D02*
X282960D01*
Y284460D01*
X287115D01*
Y263540D01*
X284960D01*
Y246460D01*
X300040D01*
Y263540D01*
X294885D01*
Y284460D01*
X299040D01*
Y291115D01*
X319487D01*
X319735Y290517D01*
X321160Y288660D01*
X323017Y287235D01*
X325179Y286339D01*
X327500Y286033D01*
X329821Y286339D01*
X331983Y287235D01*
X333840Y288660D01*
X335265Y290517D01*
X336161Y292679D01*
X336467Y295000D01*
X336161Y297321D01*
X335265Y299483D01*
X333840Y301340D01*
X331983Y302765D01*
X329821Y303661D01*
X327500Y303967D01*
X325179Y303661D01*
X323017Y302765D01*
X321160Y301340D01*
X319735Y299483D01*
X319487Y298885D01*
X299040D01*
Y315540D01*
D02*
G37*
G36*
X352660Y251627D02*
X350339Y251321D01*
X348177Y250425D01*
X346320Y249000D01*
X344895Y247143D01*
X343999Y244981D01*
X343693Y242660D01*
X343999Y240339D01*
X344895Y238177D01*
X346320Y236320D01*
X348177Y234895D01*
X348775Y234647D01*
Y221769D01*
X305891Y178885D01*
X255540D01*
Y190540D01*
X239460D01*
Y159460D01*
X255540D01*
Y171115D01*
X307500D01*
X308987Y171411D01*
X310247Y172253D01*
X355407Y217413D01*
X356249Y218673D01*
X356545Y220160D01*
Y234647D01*
X357143Y234895D01*
X359000Y236320D01*
X360425Y238177D01*
X361321Y240339D01*
X361627Y242660D01*
X361321Y244981D01*
X360425Y247143D01*
X359000Y249000D01*
X357143Y250425D01*
X354981Y251321D01*
X352660Y251627D01*
D02*
G37*
G36*
X752500Y217661D02*
X747591Y217178D01*
X742871Y215746D01*
X738521Y213421D01*
X734708Y210292D01*
X731579Y206479D01*
X729254Y202129D01*
X727822Y197409D01*
X727339Y192500D01*
X727822Y187591D01*
X729254Y182871D01*
X731579Y178521D01*
X734708Y174708D01*
X738521Y171579D01*
X742871Y169254D01*
X747591Y167822D01*
X752500Y167339D01*
X757409Y167822D01*
X762129Y169254D01*
X766479Y171579D01*
X770292Y174708D01*
X773421Y178521D01*
X775746Y182871D01*
X777178Y187591D01*
X777661Y192500D01*
X777178Y197409D01*
X775746Y202129D01*
X773421Y206479D01*
X770292Y210292D01*
X766479Y213421D01*
X762129Y215746D01*
X757409Y217178D01*
X752500Y217661D01*
D02*
G37*
G36*
X777500Y145125D02*
X774062Y144786D01*
X770755Y143783D01*
X767708Y142155D01*
X765037Y139963D01*
X762846Y137292D01*
X761217Y134245D01*
X760214Y130938D01*
X759875Y127500D01*
X760214Y124062D01*
X761217Y120755D01*
X762846Y117708D01*
X765037Y115037D01*
X767708Y112845D01*
X770755Y111217D01*
X774062Y110214D01*
X777500Y109875D01*
X780938Y110214D01*
X784245Y111217D01*
X787292Y112845D01*
X789963Y115037D01*
X792154Y117708D01*
X793783Y120755D01*
X794786Y124062D01*
X795125Y127500D01*
X794786Y130938D01*
X793783Y134245D01*
X792154Y137292D01*
X789963Y139963D01*
X787292Y142155D01*
X784245Y143783D01*
X780938Y144786D01*
X777500Y145125D01*
D02*
G37*
G36*
X27500D02*
X24062Y144786D01*
X20755Y143783D01*
X17708Y142155D01*
X15037Y139963D01*
X12845Y137292D01*
X11217Y134245D01*
X10214Y130938D01*
X9875Y127500D01*
X10214Y124062D01*
X11217Y120755D01*
X12845Y117708D01*
X15037Y115037D01*
X17708Y112845D01*
X20755Y111217D01*
X24062Y110214D01*
X27500Y109875D01*
X30938Y110214D01*
X34245Y111217D01*
X37292Y112845D01*
X39963Y115037D01*
X42154Y117708D01*
X43783Y120755D01*
X44786Y124062D01*
X45125Y127500D01*
X44786Y130938D01*
X43783Y134245D01*
X42154Y137292D01*
X39963Y139963D01*
X37292Y142155D01*
X34245Y143783D01*
X30938Y144786D01*
X27500Y145125D01*
D02*
G37*
%LPD*%
D11*
X408260Y628395D02*
X421895D01*
X350000Y539888D02*
X407612Y597500D01*
X337365Y557500D02*
X408260Y628395D01*
X407612Y597500D02*
X440000D01*
X421895Y628395D02*
X425125Y631625D01*
X350000Y507500D02*
Y539888D01*
X25000Y667500D02*
X131488Y773988D01*
X358512D01*
X360000Y663988D02*
Y772500D01*
X358512Y773988D02*
X360000Y772500D01*
X358512Y662500D02*
X360000Y663988D01*
X334230Y603270D02*
X345000Y592500D01*
X325230Y603270D02*
X334230D01*
X428105Y690000D02*
X503512D01*
X424875Y693230D02*
X428105Y690000D01*
X189000Y428500D02*
Y450001D01*
Y428500D02*
X205000Y412500D01*
X374212Y282500D02*
X423387D01*
X309790Y346922D02*
X374212Y282500D01*
X424875Y261125D02*
Y281012D01*
X423387Y282500D02*
X424875Y281012D01*
X338818Y341022D02*
Y341082D01*
X327800Y352100D02*
X338818Y341082D01*
Y341022D02*
X339840Y340000D01*
X319700Y494800D02*
X325000D01*
X312290Y487390D02*
X319700Y494800D01*
X312290Y476922D02*
Y487390D01*
Y476922D02*
X342268Y446944D01*
X348056D01*
X350000Y445000D01*
X342500Y482500D02*
X365000Y505000D01*
Y512500D02*
X390000Y537500D01*
X365000Y505000D02*
Y512500D01*
X337300Y494800D02*
X350000Y507500D01*
X325000Y482100D02*
X325400Y482500D01*
X342500D01*
X390000Y537500D02*
X405500D01*
X420500Y522500D02*
X437000Y506000D01*
X382500Y512500D02*
X392500Y522500D01*
X420500D01*
X325000Y494800D02*
X337300D01*
X503512Y690000D02*
X505000Y688512D01*
Y662500D02*
Y688512D01*
X440000Y597500D02*
X505000Y662500D01*
X424875Y693230D02*
Y693625D01*
X406500Y538500D02*
Y572500D01*
X405500Y537500D02*
X406500Y538500D01*
X321001Y622500D02*
Y643500D01*
X25000Y173988D02*
Y667500D01*
X218000Y172500D02*
X220500Y175000D01*
X26488Y172500D02*
X218000D01*
X25000Y173988D02*
X26488Y172500D01*
X312500Y662500D02*
X358512D01*
X307500Y657500D02*
X312500Y662500D01*
X321001Y615000D02*
Y622500D01*
X307500Y636000D02*
X321001Y622500D01*
X307500Y636000D02*
Y657500D01*
X290500Y607500D02*
Y645000D01*
X305685Y521515D02*
Y556203D01*
X294000Y567888D02*
X305685Y556203D01*
X294000Y567888D02*
Y615000D01*
X305685Y521515D02*
X319700Y507500D01*
X325000D01*
X321001Y607500D02*
Y615000D01*
Y607500D02*
X325230Y603270D01*
X321001Y643500D02*
X322500Y645000D01*
X262500Y590000D02*
Y633388D01*
X250000Y557500D02*
X288000D01*
X242500Y565000D02*
X250000Y557500D01*
X352660Y220160D02*
Y242660D01*
X307500Y175000D02*
X352660Y220160D01*
X247500Y175000D02*
X307500D01*
X425125Y200730D02*
Y208875D01*
X421895Y197500D02*
X425125Y200730D01*
X360000Y197500D02*
X421895D01*
X418352Y350160D02*
X467500Y301012D01*
X322500Y364800D02*
X327800D01*
X342440Y350160D02*
X418352D01*
X467500Y261000D02*
Y301012D01*
X327800Y364800D02*
X342440Y350160D01*
X425125Y208875D02*
Y218625D01*
X467500Y261000D01*
X278200Y520200D02*
X283500D01*
X282646Y521054D02*
Y540146D01*
X288000Y545500D01*
X277670Y390200D02*
X280000Y392530D01*
Y429500D02*
X283000Y432500D01*
X280000Y392530D02*
Y429500D01*
X270400Y390200D02*
X277670D01*
X290500Y607500D02*
X293000Y605000D01*
X320000Y556500D02*
X325000Y551500D01*
Y520200D02*
Y551500D01*
X320000Y557500D02*
X337365D01*
X317200Y390200D02*
X317330D01*
X315000Y392530D02*
Y432500D01*
Y392530D02*
X317330Y390200D01*
X322500D01*
X425125Y631625D02*
Y641375D01*
X324830Y379830D02*
X331329D01*
X322500Y377500D02*
X324830Y379830D01*
X331329D02*
X406500Y455000D01*
X217500Y300000D02*
X264000D01*
X217500Y300000D02*
X217500Y300000D01*
X174105Y276605D02*
X237500Y340000D01*
X128105Y276605D02*
X174105D01*
X320000Y556500D02*
Y557500D01*
X135000Y377500D02*
X275700D01*
X90000Y422500D02*
X135000Y377500D01*
X122500Y365000D02*
X275500D01*
X90000Y397500D02*
X122500Y365000D01*
X283500Y520200D02*
X290910Y512790D01*
Y476922D02*
Y512790D01*
X283000Y469012D02*
X290910Y476922D01*
X283000Y432500D02*
Y469012D01*
X260600Y400000D02*
X270400Y390200D01*
X237500Y400000D02*
X260600D01*
X124875Y263625D02*
Y273375D01*
X128105Y276605D01*
X264000Y258500D02*
Y300000D01*
X260500Y255000D02*
X264000Y258500D01*
X291000Y299230D02*
Y300000D01*
Y256500D02*
Y299230D01*
Y256500D02*
X292500Y255000D01*
X291000Y299230D02*
X295230Y295000D01*
X327500D01*
X322500Y352100D02*
X327800D01*
X309790Y382790D02*
X317200Y390200D01*
X309790Y346922D02*
Y382790D01*
X429612Y437500D02*
X481012D01*
X437500Y536500D02*
Y537500D01*
Y536500D02*
X482500Y491500D01*
Y438988D02*
Y491500D01*
X481012Y437500D02*
X482500Y438988D01*
X406500Y417500D02*
Y425000D01*
X410730Y429230D01*
X421341D01*
X429612Y437500D01*
X406500Y410000D02*
Y417500D01*
X402270Y405770D02*
X406500Y410000D01*
X390770Y405770D02*
X402270D01*
X377500Y392500D02*
X390770Y405770D01*
X406500Y455000D02*
Y462500D01*
X437000Y505000D02*
Y506000D01*
X288000Y545500D02*
Y547000D01*
X288000D02*
Y557500D01*
X127375Y653625D02*
X130000Y656250D01*
Y730000D01*
X214302Y595302D02*
X294000Y675000D01*
X214302Y590698D02*
X215000Y590000D01*
X214302Y590698D02*
Y595302D01*
X294000Y675000D02*
Y682500D01*
X321000Y675000D02*
Y682500D01*
X316770Y670770D02*
X321000Y675000D01*
X306158Y670770D02*
X316770D01*
X297062Y661674D02*
X306158Y670770D01*
X290786Y661674D02*
X297062D01*
X262500Y633388D02*
X290786Y661674D01*
X433500Y542500D02*
Y572500D01*
Y542500D02*
X437500Y538500D01*
Y537500D02*
Y538500D01*
X433500Y462500D02*
X435000Y464000D01*
Y503000D02*
X437000Y505000D01*
X435000Y464000D02*
Y503000D01*
X405000Y464000D02*
Y505000D01*
Y464000D02*
X406500Y462500D01*
X275500Y365000D02*
X275700Y364800D01*
X275900Y492500D02*
X278200Y494800D01*
X90000Y447500D02*
X135000Y492500D01*
X275900D01*
X90000Y472500D02*
X122500Y505000D01*
X270570Y505170D02*
X272900Y507500D01*
X269252Y505170D02*
X270570D01*
X269082Y505000D02*
X269252Y505170D01*
X122500Y505000D02*
X269082D01*
X272900Y507500D02*
X278200D01*
D13*
X0Y100000D02*
X805000D01*
X0Y800000D02*
X0Y100000D01*
X805000Y800000D02*
X805000Y100000D01*
X0Y800000D02*
X805000D01*
D14*
X216000Y450001D02*
D03*
X189000D02*
D03*
X406500Y417500D02*
D03*
X433500D02*
D03*
X406500Y572500D02*
D03*
X433500D02*
D03*
X294000Y615000D02*
D03*
X321001D02*
D03*
X264000Y300000D02*
D03*
X291000D02*
D03*
X321000Y682500D02*
D03*
X294000D02*
D03*
X433500Y462500D02*
D03*
X406500D02*
D03*
X247500Y175000D02*
D03*
X220500D02*
D03*
D15*
X437500Y537500D02*
D03*
X405500D02*
D03*
X322500Y645000D02*
D03*
X290500D02*
D03*
X292500Y255000D02*
D03*
X260500D02*
D03*
X320000Y557500D02*
D03*
X288000D02*
D03*
X405000Y505000D02*
D03*
X437000D02*
D03*
X315000Y432500D02*
D03*
X283000D02*
D03*
D16*
X424875Y261125D02*
D03*
X425125Y208875D02*
D03*
X425125Y641375D02*
D03*
X424875Y693625D02*
D03*
X127625Y601375D02*
D03*
X127375Y653625D02*
D03*
X125125Y211375D02*
D03*
X124875Y263625D02*
D03*
D17*
X278200Y520200D02*
D03*
Y507500D02*
D03*
Y494800D02*
D03*
Y482100D02*
D03*
X325000Y520200D02*
D03*
Y507500D02*
D03*
Y494800D02*
D03*
Y482100D02*
D03*
X275700Y390200D02*
D03*
Y377500D02*
D03*
Y364800D02*
D03*
Y352100D02*
D03*
X322500Y390200D02*
D03*
Y377500D02*
D03*
Y364800D02*
D03*
Y352100D02*
D03*
D28*
X637500Y374500D02*
D03*
D29*
Y430500D02*
D03*
D30*
X762500Y712500D02*
D03*
Y582500D02*
D03*
X752500Y322500D02*
D03*
Y192500D02*
D03*
D31*
X27500Y772500D02*
D03*
X90000Y372500D02*
D03*
Y397500D02*
D03*
Y422500D02*
D03*
Y447500D02*
D03*
Y472500D02*
D03*
X27500Y127500D02*
D03*
X777500D02*
D03*
Y772500D02*
D03*
D32*
X635000Y510000D02*
D03*
Y720000D02*
D03*
D33*
X345000Y592500D02*
D03*
X55000Y627500D02*
D03*
X205000Y412500D02*
D03*
X339840Y340000D02*
D03*
X382500Y512500D02*
D03*
X262500Y590000D02*
D03*
X242500Y565000D02*
D03*
X352660Y242660D02*
D03*
X360000Y197500D02*
D03*
X350000Y445000D02*
D03*
X217500Y300000D02*
D03*
X237500Y400000D02*
D03*
Y340000D02*
D03*
X327500Y295000D02*
D03*
X377500Y392500D02*
D03*
X130000Y730000D02*
D03*
X215000Y590000D02*
D03*
M02*
