G04*
G04 #@! TF.GenerationSoftware,Altium Limited,Altium Designer,20.0.12 (288)*
G04*
G04 Layer_Color=65535*
%FSLAX44Y44*%
%MOMM*%
G71*
G01*
G75*
%ADD10C,0.2000*%
%ADD11C,0.2540*%
%ADD12C,0.1500*%
%ADD13C,1.0000*%
D10*
X677500Y402500D02*
G03*
X677500Y402500I-40000J0D01*
G01*
X296020Y526200D02*
G03*
X308380Y526200I6180J0D01*
G01*
X293520Y396200D02*
G03*
X305880Y396200I6180J0D01*
G01*
X198500Y438000D02*
X206500D01*
X198500Y462001D02*
X206500D01*
X415999Y429500D02*
X423999D01*
X415999Y405500D02*
X423999D01*
X416000Y584500D02*
X424000D01*
X416000Y560500D02*
X424000D01*
X303500Y627000D02*
X311500D01*
X303500Y603000D02*
X311500D01*
X273500Y312000D02*
X281500D01*
X273500Y288000D02*
X281500D01*
X303500Y670500D02*
X311500D01*
X303500Y694500D02*
X311500D01*
X416000Y450500D02*
X424000D01*
X416000Y474500D02*
X424000D01*
X265200Y526550D02*
X296020D01*
X308380D02*
X338200D01*
Y475750D02*
Y526550D01*
X265200Y475750D02*
X338200D01*
X265200D02*
Y526550D01*
X262700Y396550D02*
X293520D01*
X305880D02*
X335700D01*
Y345750D02*
Y396550D01*
X262700Y345750D02*
X335700D01*
X262700D02*
Y396550D01*
X230000Y163000D02*
X238000D01*
X230000Y187000D02*
X238000D01*
D11*
X414500Y537500D02*
X418500D01*
Y531500D02*
Y542500D01*
X423500Y537500D02*
Y542500D01*
X418500Y537500D02*
X423500Y542500D01*
X418500Y537500D02*
X423500Y532500D01*
Y537500D01*
X428500D01*
X299500Y645000D02*
X303500D01*
Y639000D02*
Y650000D01*
X308500Y645000D02*
Y650000D01*
X303500Y645000D02*
X308500Y650000D01*
X303500Y645000D02*
X308500Y640000D01*
Y645000D01*
X313500D01*
X269500Y255000D02*
X274500D01*
Y260000D01*
X279500Y255000D01*
X274500Y250000D02*
X279500Y255000D01*
X274500Y250000D02*
Y255000D01*
X279500Y250000D02*
Y261000D01*
Y255000D02*
X283500D01*
X297000Y557500D02*
X302000D01*
Y562500D01*
X307000Y557500D01*
X302000Y552500D02*
X307000Y557500D01*
X302000Y552500D02*
Y557500D01*
X307000Y552500D02*
Y563500D01*
Y557500D02*
X311000D01*
X423000Y505000D02*
X428000D01*
X423000Y500000D02*
Y505000D01*
X418000D02*
X423000Y500000D01*
X418000Y505000D02*
X423000Y510000D01*
Y505000D02*
Y510000D01*
X418000Y499000D02*
Y510000D01*
X414000Y505000D02*
X418000D01*
X292000Y432500D02*
X297000D01*
Y437500D01*
X302000Y432500D01*
X297000Y427500D02*
X302000Y432500D01*
X297000Y427500D02*
Y432500D01*
X302000Y427500D02*
Y438500D01*
Y432500D02*
X306000D01*
X420125Y284875D02*
X430125D01*
X424875Y279625D02*
Y289625D01*
X390048Y195875D02*
Y263298D01*
X390127Y263377D02*
X400875Y274125D01*
X417125D01*
X459625Y196125D02*
Y263375D01*
X448875Y274125D02*
X459625Y263375D01*
X432375Y274125D02*
X448875D01*
X432375Y244375D02*
Y273875D01*
X417375Y244375D02*
X432125D01*
X417125Y244625D02*
Y274125D01*
X432625Y196125D02*
X459625D01*
X390456Y195875D02*
X417456D01*
X417625D02*
Y225375D01*
X432625Y196125D02*
Y225625D01*
X417875D02*
X432625D01*
X417625Y225375D02*
X417875Y225625D01*
X419875Y617625D02*
X429875D01*
X425125Y612875D02*
Y622875D01*
X459952Y639202D02*
Y706625D01*
X449125Y628375D02*
X459873Y639123D01*
X432875Y628375D02*
X449125D01*
X390375Y639125D02*
Y706375D01*
Y639125D02*
X401125Y628375D01*
X417625D01*
Y628625D02*
Y658124D01*
X417875Y658125D02*
X432625D01*
X432875Y628374D02*
Y657875D01*
X390375Y706375D02*
X417375D01*
X432544Y706625D02*
X459544D01*
X432375Y677125D02*
Y706625D01*
X417375Y676875D02*
Y706375D01*
Y676875D02*
X432125D01*
X432375Y677125D01*
X585000Y490000D02*
X685000D01*
Y740000D01*
X585000D02*
X685000D01*
X585000Y490000D02*
Y740000D01*
X120125Y617875D02*
X120375Y618125D01*
X135125D01*
Y588625D02*
Y618125D01*
X120125Y588375D02*
Y617875D01*
X92956Y588375D02*
X119956D01*
X135125Y588625D02*
X162125D01*
X119625Y637125D02*
Y666625D01*
X119875Y636875D02*
X134625D01*
X134875D02*
Y666375D01*
Y666625D02*
X151375D01*
X162125Y655875D01*
Y588625D02*
Y655875D01*
X103375Y666625D02*
X119625D01*
X92627Y655877D02*
X103375Y666625D01*
X92548Y588375D02*
Y655798D01*
X127375Y672125D02*
Y682125D01*
X122625Y677375D02*
X132625D01*
X12750Y497750D02*
X102750D01*
X103000Y347750D02*
Y497750D01*
X12750Y347750D02*
X102750D01*
X12750D02*
Y497750D01*
X117625Y227875D02*
X117875Y228125D01*
X132625D01*
Y198625D02*
Y228125D01*
X117625Y198375D02*
Y227875D01*
X90456Y198375D02*
X117456D01*
X132625Y198625D02*
X159625D01*
X117125Y247125D02*
Y276625D01*
X117375Y246875D02*
X132125D01*
X132375D02*
Y276375D01*
Y276625D02*
X148875D01*
X159625Y265875D01*
Y198625D02*
Y265875D01*
X100875Y276625D02*
X117125D01*
X90127Y265877D02*
X100875Y276625D01*
X90048Y198375D02*
Y265798D01*
X124875Y282125D02*
Y292125D01*
X120125Y287375D02*
X130125D01*
X719724Y700041D02*
X729880D01*
X734959Y705120D01*
X729880Y710198D01*
X719724D01*
X727341Y715276D02*
Y725433D01*
X719724Y570041D02*
X729880D01*
X734959Y575120D01*
X729880Y580198D01*
X719724D01*
X727341Y585276D02*
Y595433D01*
X722263Y590355D02*
X732419D01*
X719960Y187540D02*
X704725D01*
X709803Y192618D01*
X704725Y197697D01*
X719960D01*
X712343Y202775D02*
Y212932D01*
X722460Y317540D02*
X707225D01*
X712303Y322618D01*
X707225Y327697D01*
X722460D01*
X714842Y332775D02*
Y342932D01*
X709764Y337853D02*
X719921D01*
X699961Y410078D02*
X697422Y412618D01*
X692343D01*
X689804Y410078D01*
Y399922D01*
X692343Y397383D01*
X697422D01*
X699961Y399922D01*
X715196Y412618D02*
X705039D01*
Y405000D01*
X710117Y407539D01*
X712657D01*
X715196Y405000D01*
Y399922D01*
X712657Y397383D01*
X707578D01*
X705039Y399922D01*
X339804Y377617D02*
X349961Y362383D01*
Y377617D02*
X339804Y362383D01*
X365196D02*
X355039D01*
X365196Y372539D01*
Y375078D01*
X362657Y377617D01*
X357578D01*
X355039Y375078D01*
X343044Y510317D02*
X353200Y495082D01*
Y510317D02*
X343044Y495082D01*
X358279D02*
X363357D01*
X360818D01*
Y510317D01*
X358279Y507778D01*
X232304Y439882D02*
Y455117D01*
X239922D01*
X242461Y452578D01*
Y447500D01*
X239922Y444961D01*
X232304D01*
X237383D02*
X242461Y439882D01*
X247539Y452578D02*
X250078Y455117D01*
X255157D01*
X257696Y452578D01*
Y450039D01*
X255157Y447500D01*
X257696Y444961D01*
Y442422D01*
X255157Y439882D01*
X250078D01*
X247539Y442422D01*
Y444961D01*
X250078Y447500D01*
X247539Y450039D01*
Y452578D01*
X250078Y447500D02*
X255157D01*
X334804Y674883D02*
Y690117D01*
X342422D01*
X344961Y687578D01*
Y682500D01*
X342422Y679961D01*
X334804D01*
X339883D02*
X344961Y674883D01*
X350039Y690117D02*
X360196D01*
Y687578D01*
X350039Y677422D01*
Y674883D01*
X445804Y409882D02*
Y425117D01*
X453421D01*
X455961Y422578D01*
Y417500D01*
X453421Y414961D01*
X445804D01*
X450882D02*
X455961Y409882D01*
X471195Y425117D02*
X466117Y422578D01*
X461039Y417500D01*
Y412421D01*
X463578Y409882D01*
X468656D01*
X471195Y412421D01*
Y414961D01*
X468656Y417500D01*
X461039D01*
X216128Y197146D02*
Y212381D01*
X223745D01*
X226285Y209842D01*
Y204764D01*
X223745Y202225D01*
X216128D01*
X221206D02*
X226285Y197146D01*
X241520Y212381D02*
X231363D01*
Y204764D01*
X236441Y207303D01*
X238980D01*
X241520Y204764D01*
Y199685D01*
X238980Y197146D01*
X233902D01*
X231363Y199685D01*
X445804Y454883D02*
Y470118D01*
X453422D01*
X455961Y467579D01*
Y462500D01*
X453422Y459961D01*
X445804D01*
X450882D02*
X455961Y454883D01*
X468657D02*
Y470118D01*
X461039Y462500D01*
X471196D01*
X304804Y292383D02*
Y307617D01*
X312422D01*
X314961Y305078D01*
Y300000D01*
X312422Y297461D01*
X304804D01*
X309883D02*
X314961Y292383D01*
X320039Y305078D02*
X322578Y307617D01*
X327657D01*
X330196Y305078D01*
Y302539D01*
X327657Y300000D01*
X325118D01*
X327657D01*
X330196Y297461D01*
Y294922D01*
X327657Y292383D01*
X322578D01*
X320039Y294922D01*
X334804Y607383D02*
Y622617D01*
X342422D01*
X344961Y620078D01*
Y615000D01*
X342422Y612461D01*
X334804D01*
X339883D02*
X344961Y607383D01*
X360196D02*
X350039D01*
X360196Y617539D01*
Y620078D01*
X357657Y622617D01*
X352578D01*
X350039Y620078D01*
X452343Y564883D02*
Y580117D01*
X459961D01*
X462500Y577578D01*
Y572500D01*
X459961Y569961D01*
X452343D01*
X457422D02*
X462500Y564883D01*
X467578D02*
X472657D01*
X470118D01*
Y580117D01*
X467578Y577578D01*
X13894Y506522D02*
Y521757D01*
X21511D01*
X24051Y519218D01*
Y514139D01*
X21511Y511600D01*
X13894D01*
X29129Y506522D02*
X34207D01*
X31668D01*
Y521757D01*
X29129Y519218D01*
X559882Y735000D02*
Y724843D01*
X567500D01*
Y729922D01*
Y724843D01*
X575117D01*
Y740078D02*
Y745157D01*
Y742617D01*
X559882D01*
X562422Y740078D01*
X449305Y512617D02*
Y497383D01*
X456922D01*
X459461Y499922D01*
Y510078D01*
X456922Y512617D01*
X449305D01*
X474696D02*
X469618Y510078D01*
X464540Y505000D01*
Y499922D01*
X467079Y497383D01*
X472157D01*
X474696Y499922D01*
Y502461D01*
X472157Y505000D01*
X464540D01*
X312304Y260117D02*
Y244883D01*
X319922D01*
X322461Y247422D01*
Y257578D01*
X319922Y260117D01*
X312304D01*
X337696D02*
X327539D01*
Y252500D01*
X332617Y255039D01*
X335157D01*
X337696Y252500D01*
Y247422D01*
X335157Y244883D01*
X330078D01*
X327539Y247422D01*
X335304Y652617D02*
Y637382D01*
X342922D01*
X345461Y639921D01*
Y650078D01*
X342922Y652617D01*
X335304D01*
X358157Y637382D02*
Y652617D01*
X350539Y645000D01*
X360696D01*
X450304Y545117D02*
Y529883D01*
X457922D01*
X460461Y532422D01*
Y542578D01*
X457922Y545117D01*
X450304D01*
X465539Y542578D02*
X468078Y545117D01*
X473157D01*
X475696Y542578D01*
Y540039D01*
X473157Y537500D01*
X470618D01*
X473157D01*
X475696Y534961D01*
Y532422D01*
X473157Y529883D01*
X468078D01*
X465539Y532422D01*
X329804Y437617D02*
Y422383D01*
X337422D01*
X339961Y424922D01*
Y435078D01*
X337422Y437617D01*
X329804D01*
X355196Y422383D02*
X345039D01*
X355196Y432539D01*
Y435078D01*
X352657Y437617D01*
X347578D01*
X345039Y435078D01*
X332343Y565117D02*
Y549883D01*
X339961D01*
X342500Y552422D01*
Y562578D01*
X339961Y565117D01*
X332343D01*
X347578Y549883D02*
X352657D01*
X350118D01*
Y565117D01*
X347578Y562578D01*
X454961Y620078D02*
X452422Y622618D01*
X447343D01*
X444804Y620078D01*
Y609922D01*
X447343Y607383D01*
X452422D01*
X454961Y609922D01*
X467657Y607383D02*
Y622618D01*
X460039Y615000D01*
X470196D01*
X447461Y295078D02*
X444922Y297618D01*
X439843D01*
X437304Y295078D01*
Y284922D01*
X439843Y282383D01*
X444922D01*
X447461Y284922D01*
X452539Y295078D02*
X455078Y297618D01*
X460157D01*
X462696Y295078D01*
Y292539D01*
X460157Y290000D01*
X457617D01*
X460157D01*
X462696Y287461D01*
Y284922D01*
X460157Y282383D01*
X455078D01*
X452539Y284922D01*
X104013Y703592D02*
X101474Y706131D01*
X96395D01*
X93856Y703592D01*
Y693435D01*
X96395Y690896D01*
X101474D01*
X104013Y693435D01*
X119248Y690896D02*
X109091D01*
X119248Y701053D01*
Y703592D01*
X116709Y706131D01*
X111630D01*
X109091Y703592D01*
X101553Y313618D02*
X99014Y316157D01*
X93935D01*
X91396Y313618D01*
Y303461D01*
X93935Y300922D01*
X99014D01*
X101553Y303461D01*
X106631Y300922D02*
X111709D01*
X109170D01*
Y316157D01*
X106631Y313618D01*
D12*
X637002Y448500D02*
Y458497D01*
X632004Y453498D02*
X642001D01*
D13*
X0Y100000D02*
X805000D01*
X0Y800000D02*
X0Y100000D01*
X805000Y800000D02*
X805000Y100000D01*
X0Y800000D02*
X805000D01*
M02*
