%TF.GenerationSoftware,Altium Limited,Altium Designer,20.0.12 (288)*%
G04 Layer_Color=32768*
%FSLAX44Y44*%
%MOMM*%
%TF.FileFunction,Other,Mechanical_15*%
%TF.Part,Single*%
G01*
G75*
%TA.AperFunction,NonConductor*%
%ADD48C,0.1000*%
D48*
X202500Y345000D02*
Y355000D01*
X197500Y350001D02*
X207500D01*
X182500Y336000D02*
X222500D01*
X182500Y364001D02*
X222500D01*
Y336000D02*
Y364001D01*
X182500Y336000D02*
Y364001D01*
X420000Y312500D02*
Y322500D01*
X415000Y317500D02*
X425000D01*
X400000Y331500D02*
X440000D01*
X400000Y303500D02*
X440000D01*
X400000D02*
Y331500D01*
X440000Y303500D02*
Y331500D01*
X444500Y429500D02*
Y445500D01*
X398500Y429500D02*
Y445500D01*
Y429500D02*
X444500D01*
X398500Y445500D02*
X444500D01*
X329500Y537000D02*
Y553000D01*
X283500Y537000D02*
Y553000D01*
Y537000D02*
X329500D01*
X283500Y553000D02*
X329500D01*
X400000Y458500D02*
Y486500D01*
X440000Y458500D02*
Y486500D01*
X400000D02*
X440000D01*
X400000Y458500D02*
X440000D01*
X415000Y472500D02*
X425000D01*
X420000Y467500D02*
Y477500D01*
X287500Y501000D02*
Y529000D01*
X327500Y501000D02*
Y529000D01*
X287500D02*
X327500D01*
X287500Y501000D02*
X327500D01*
X302500Y515000D02*
X312500D01*
X307500Y510000D02*
Y520000D01*
X253500Y147000D02*
X299500D01*
X253500Y163000D02*
X299500D01*
Y147000D02*
Y163000D01*
X253500Y147000D02*
Y163000D01*
X277500Y195000D02*
Y205000D01*
X272500Y200000D02*
X282500D01*
X257500Y214000D02*
X297500D01*
X257500Y186000D02*
X297500D01*
X257500D02*
Y214000D01*
X297500Y186000D02*
Y214000D01*
X281000Y449500D02*
X327000D01*
X281000Y465500D02*
X327000D01*
Y449500D02*
Y465500D01*
X281000Y449500D02*
Y465500D01*
X307500Y577500D02*
Y587500D01*
X302500Y582500D02*
X312500D01*
X287500Y568500D02*
X327500D01*
X287500Y596500D02*
X327500D01*
Y568500D02*
Y596500D01*
X287500Y568500D02*
Y596500D01*
X420000Y357500D02*
Y367500D01*
X415000Y362500D02*
X425000D01*
X400000Y348500D02*
X440000D01*
X400000Y376500D02*
X440000D01*
Y348500D02*
Y376500D01*
X400000Y348500D02*
Y376500D01*
X398000Y413000D02*
X444000D01*
X398000Y397000D02*
X444000D01*
X398000D02*
Y413000D01*
X444000Y397000D02*
Y413000D01*
X276000Y324500D02*
X322000D01*
X276000Y340500D02*
X322000D01*
Y324500D02*
Y340500D01*
X276000Y324500D02*
Y340500D01*
X254000Y61000D02*
Y89000D01*
X214000Y61000D02*
Y89000D01*
Y61000D02*
X254000D01*
X214000Y89000D02*
X254000D01*
X229000Y75000D02*
X239000D01*
X234000Y70000D02*
Y80000D01*
%TF.MD5,ae6bcf3199dba23abeff6478beedb7c8*%
M02*
