%TF.GenerationSoftware,Altium Limited,Altium Designer,20.0.12 (288)*%
G04 Layer_Color=255*
%FSLAX44Y44*%
%MOMM*%
%TF.FileFunction,Pads,Top*%
%TF.Part,Single*%
G01*
G75*
%TA.AperFunction,SMDPad,CuDef*%
%ADD10R,1.2000X2.8500*%
%ADD11R,1.1000X2.2500*%
%ADD12R,1.1000X2.6000*%
%ADD13R,1.0000X1.2000*%
%ADD14R,1.7800X0.7200*%
%TA.AperFunction,ComponentPad*%
%ADD16C,1.2000*%
%ADD17R,1.2000X1.2000*%
%TA.AperFunction,TestPad*%
%ADD18C,4.5000*%
%TA.AperFunction,ViaPad*%
%ADD19C,1.5240*%
%TA.AperFunction,ComponentPad*%
%ADD20C,3.0000*%
%ADD21C,1.5240*%
D10*
X425000Y593750D02*
D03*
X425000Y538250D02*
D03*
X425000Y108750D02*
D03*
X425000Y164250D02*
D03*
D11*
X127500Y542750D02*
D03*
Y502250D02*
D03*
X125000Y152750D02*
D03*
Y112250D02*
D03*
D12*
X216000Y350001D02*
D03*
X189000D02*
D03*
X406500Y317500D02*
D03*
X433500D02*
D03*
X406500Y472500D02*
D03*
X433500D02*
D03*
X294000Y515000D02*
D03*
X321001D02*
D03*
X264000Y200000D02*
D03*
X291000D02*
D03*
X321000Y582500D02*
D03*
X294000D02*
D03*
X433500Y362500D02*
D03*
X406500D02*
D03*
X247500Y75000D02*
D03*
X220500D02*
D03*
D13*
X437500Y437500D02*
D03*
X405500D02*
D03*
X322500Y545000D02*
D03*
X290500D02*
D03*
X292500Y155000D02*
D03*
X260500D02*
D03*
X320000Y457500D02*
D03*
X288000D02*
D03*
X405000Y405000D02*
D03*
X437000D02*
D03*
X315000Y332500D02*
D03*
X283000D02*
D03*
D14*
X278200Y420200D02*
D03*
Y407500D02*
D03*
Y394800D02*
D03*
Y382100D02*
D03*
X325000Y420200D02*
D03*
Y407500D02*
D03*
Y394800D02*
D03*
Y382100D02*
D03*
X275700Y290200D02*
D03*
Y277500D02*
D03*
Y264800D02*
D03*
Y252100D02*
D03*
X322500Y290200D02*
D03*
Y277500D02*
D03*
Y264800D02*
D03*
Y252100D02*
D03*
D16*
X637500Y274500D02*
D03*
D17*
Y330500D02*
D03*
D18*
X762500Y612500D02*
D03*
Y482500D02*
D03*
X752500Y222500D02*
D03*
Y92500D02*
D03*
D19*
X27500Y672500D02*
D03*
Y27500D02*
D03*
X777500D02*
D03*
Y672500D02*
D03*
D20*
X635000Y410000D02*
D03*
Y620000D02*
D03*
D21*
X90000Y272500D02*
D03*
Y297500D02*
D03*
Y322500D02*
D03*
Y347500D02*
D03*
Y372500D02*
D03*
%TF.MD5,cbe167c659afa0f3c430ecae6e5de501*%
M02*
