%TF.GenerationSoftware,Altium Limited,Altium Designer,20.0.12 (288)*%
G04 Layer_Color=32896*
%FSLAX44Y44*%
%MOMM*%
%TF.FileFunction,Legend,Bot*%
%TF.Part,Single*%
G01*
G75*
%TA.AperFunction,NonConductor*%
%ADD27C,0.2540*%
D27*
X520000Y415000D02*
Y605000D01*
X390000Y415000D02*
X520000D01*
X390000D02*
Y605000D01*
X520000D01*
X389200Y95000D02*
X519200D01*
Y285000D01*
X389200D02*
X519200D01*
X389200Y95000D02*
Y285000D01*
X175000Y605000D02*
X305000D01*
X175000Y415000D02*
Y605000D01*
Y415000D02*
X305000D01*
Y605000D01*
X171700Y95000D02*
X301700D01*
Y285000D01*
X171700D02*
X301700D01*
X171700Y95000D02*
Y285000D01*
X300518Y309095D02*
Y296399D01*
X297979Y293860D01*
X292901D01*
X290361Y296399D01*
Y309095D01*
X277665Y293860D02*
Y309095D01*
X285283Y301478D01*
X275126D01*
X303712Y629245D02*
Y616549D01*
X301173Y614010D01*
X296095D01*
X293555Y616549D01*
Y629245D01*
X288477Y626706D02*
X285938Y629245D01*
X280860D01*
X278320Y626706D01*
Y624167D01*
X280860Y621628D01*
X283399D01*
X280860D01*
X278320Y619088D01*
Y616549D01*
X280860Y614010D01*
X285938D01*
X288477Y616549D01*
X517902Y309079D02*
Y296383D01*
X515363Y293844D01*
X510285D01*
X507745Y296383D01*
Y309079D01*
X492510Y293844D02*
X502667D01*
X492510Y304001D01*
Y306540D01*
X495049Y309079D01*
X500128D01*
X502667Y306540D01*
X519757Y631618D02*
Y618922D01*
X517217Y616383D01*
X512139D01*
X509600Y618922D01*
Y631618D01*
X504522Y616383D02*
X499443D01*
X501982D01*
Y631618D01*
X504522Y629078D01*
%TF.MD5,9476503e77ce2e831348a1efb87f6262*%
M02*
