%TF.GenerationSoftware,Altium Limited,Altium Designer,20.0.12 (288)*%
G04 Layer_Physical_Order=2*
G04 Layer_Color=16711680*
%FSLAX44Y44*%
%MOMM*%
%TF.FileFunction,Copper,L2,Bot,Signal*%
%TF.Part,Single*%
G01*
G75*
%TA.AperFunction,Conductor*%
%ADD15C,0.2540*%
%TA.AperFunction,ComponentPad*%
%ADD16C,1.2000*%
%ADD17R,1.2000X1.2000*%
%TA.AperFunction,TestPad*%
%ADD18C,4.5000*%
%TA.AperFunction,ViaPad*%
%ADD19C,1.5240*%
%TA.AperFunction,ComponentPad*%
%ADD20C,3.0000*%
%ADD21C,1.5240*%
%TA.AperFunction,ViaPad*%
%ADD22C,1.2700*%
%TA.AperFunction,SMDPad,CuDef*%
%ADD23R,11.4300X8.8900*%
%ADD24R,2.0800X3.8100*%
%TA.AperFunction,Conductor*%
%ADD25C,6.0000*%
%ADD26C,1.5000*%
G36*
X805000Y0D02*
X0D01*
Y700000D01*
X805000D01*
Y0D01*
D02*
G37*
%LPC*%
G36*
X777500Y690125D02*
X774062Y689786D01*
X770755Y688783D01*
X767708Y687154D01*
X765037Y684963D01*
X762846Y682292D01*
X761217Y679245D01*
X760214Y675938D01*
X759875Y672500D01*
X760214Y669062D01*
X761217Y665755D01*
X762846Y662708D01*
X765037Y660037D01*
X767708Y657846D01*
X770755Y656217D01*
X774062Y655214D01*
X777500Y654875D01*
X780938Y655214D01*
X784245Y656217D01*
X787292Y657846D01*
X789963Y660037D01*
X792154Y662708D01*
X793783Y665755D01*
X794786Y669062D01*
X795125Y672500D01*
X794786Y675938D01*
X793783Y679245D01*
X792154Y682292D01*
X789963Y684963D01*
X787292Y687154D01*
X784245Y688783D01*
X780938Y689786D01*
X777500Y690125D01*
D02*
G37*
G36*
X27500D02*
X24062Y689786D01*
X20755Y688783D01*
X17708Y687154D01*
X15037Y684963D01*
X12845Y682292D01*
X11217Y679245D01*
X10214Y675938D01*
X9875Y672500D01*
X10214Y669062D01*
X11217Y665755D01*
X12845Y662708D01*
X15037Y660037D01*
X17708Y657846D01*
X20755Y656217D01*
X24062Y655214D01*
X27500Y654875D01*
X30938Y655214D01*
X34245Y656217D01*
X37292Y657846D01*
X39963Y660037D01*
X42154Y662708D01*
X43783Y665755D01*
X44786Y669062D01*
X45125Y672500D01*
X44786Y675938D01*
X43783Y679245D01*
X42154Y682292D01*
X39963Y684963D01*
X37292Y687154D01*
X34245Y688783D01*
X30938Y689786D01*
X27500Y690125D01*
D02*
G37*
G36*
X153400Y640127D02*
X153400Y640127D01*
X130000D01*
X127379Y639781D01*
X124937Y638770D01*
X122839Y637161D01*
X121230Y635063D01*
X120218Y632621D01*
X119873Y630000D01*
X120218Y627379D01*
X121230Y624937D01*
X122839Y622839D01*
X124937Y621230D01*
X127379Y620218D01*
X130000Y619873D01*
X149206D01*
X179910Y589169D01*
Y509510D01*
X232373D01*
Y465000D01*
X232402Y464786D01*
X232084Y464488D01*
X229999Y463577D01*
X226686Y466407D01*
X225127Y467362D01*
Y490000D01*
X224782Y492621D01*
X223770Y495063D01*
X222161Y497161D01*
X220063Y498770D01*
X217621Y499782D01*
X215000Y500127D01*
X212379Y499782D01*
X209937Y498770D01*
X207839Y497161D01*
X206230Y495063D01*
X205218Y492621D01*
X204873Y490000D01*
Y472434D01*
X202394Y472239D01*
X197413Y471043D01*
X192681Y469083D01*
X188314Y466407D01*
X184419Y463080D01*
X171466Y450127D01*
X146695D01*
X62161Y534661D01*
X60063Y536270D01*
X57621Y537282D01*
X55000Y537627D01*
X52379Y537282D01*
X49937Y536270D01*
X47839Y534661D01*
X46230Y532563D01*
X45219Y530121D01*
X44873Y527500D01*
X45219Y524879D01*
X46230Y522437D01*
X47839Y520339D01*
X135340Y432839D01*
X137437Y431230D01*
X139879Y430218D01*
X142500Y429873D01*
X142500Y429873D01*
X147894D01*
X148866Y427527D01*
X124380Y403040D01*
X121053Y399146D01*
X118377Y394779D01*
X116417Y390047D01*
X115221Y385066D01*
X114819Y379960D01*
Y193137D01*
X115221Y188031D01*
X116417Y183051D01*
X118377Y178319D01*
X121053Y173952D01*
X124380Y170057D01*
X159567Y134870D01*
X159567Y134870D01*
X163461Y131544D01*
X167829Y128867D01*
X172561Y126907D01*
X177410Y125743D01*
Y96510D01*
X231609D01*
Y82891D01*
X232011Y77785D01*
X233207Y72805D01*
X235167Y68073D01*
X237843Y63705D01*
X241170Y59811D01*
X271061Y29920D01*
X274955Y26593D01*
X279323Y23917D01*
X284055Y21957D01*
X289035Y20761D01*
X294141Y20359D01*
X294141Y20359D01*
X682000D01*
X687106Y20761D01*
X692086Y21957D01*
X696818Y23917D01*
X701186Y26593D01*
X705080Y29920D01*
X735020Y59859D01*
X752500D01*
X757606Y60261D01*
X762587Y61457D01*
X767318Y63417D01*
X771686Y66093D01*
X775580Y69420D01*
X778907Y73314D01*
X781583Y77681D01*
X783543Y82414D01*
X784739Y87394D01*
X785141Y92500D01*
X784739Y97606D01*
X783543Y102586D01*
X781583Y107318D01*
X778907Y111686D01*
X775580Y115580D01*
X771686Y118907D01*
X767318Y121583D01*
X762587Y123543D01*
X757606Y124739D01*
X752500Y125141D01*
X721500D01*
X716394Y124739D01*
X711413Y123543D01*
X706682Y121583D01*
X702314Y118907D01*
X698420Y115580D01*
X668480Y85641D01*
X364242D01*
X363737Y88181D01*
X365063Y88730D01*
X367161Y90339D01*
X368770Y92437D01*
X369782Y94879D01*
X370127Y97500D01*
X369782Y100121D01*
X368770Y102563D01*
X367161Y104661D01*
X358110Y113711D01*
X356013Y115320D01*
X353571Y116332D01*
X350950Y116677D01*
X350949Y116677D01*
X296865D01*
X296790Y117628D01*
Y190490D01*
X236628D01*
X235350Y190591D01*
X225903D01*
X225152Y191951D01*
X224884Y193131D01*
X226270Y194937D01*
X227282Y197379D01*
X227627Y200000D01*
X227282Y202621D01*
X226270Y205063D01*
X224661Y207161D01*
X221827Y209995D01*
Y238410D01*
X224640D01*
Y281590D01*
X220127D01*
Y307500D01*
X219782Y310121D01*
X218770Y312563D01*
X217161Y314661D01*
X217160Y314661D01*
X212161Y319661D01*
X210063Y321270D01*
X207621Y322282D01*
X205000Y322627D01*
X202379Y322282D01*
X199937Y321270D01*
X197839Y319661D01*
X196230Y317563D01*
X195218Y315121D01*
X194873Y312500D01*
X195218Y309879D01*
X196230Y307437D01*
X197839Y305339D01*
X199873Y303305D01*
Y281590D01*
X198760D01*
Y238410D01*
X201573D01*
Y205800D01*
X201573Y205800D01*
X201918Y203179D01*
X202930Y200737D01*
X204539Y198639D01*
X210048Y193131D01*
X209860Y191971D01*
X209097Y190591D01*
X196167D01*
X180101Y206658D01*
Y366440D01*
X230580Y416920D01*
X233907Y420814D01*
X236583Y425181D01*
X238543Y429913D01*
X239739Y434894D01*
X240140Y440000D01*
X239739Y445106D01*
X238543Y450086D01*
X237075Y453631D01*
X239019Y455575D01*
X239879Y455218D01*
X242500Y454873D01*
X245121Y455218D01*
X247563Y456230D01*
X249520Y457732D01*
X250154Y457624D01*
X252060Y456794D01*
Y418410D01*
X277940D01*
Y429873D01*
X350805D01*
X375339Y405339D01*
X377437Y403730D01*
X379879Y402718D01*
X382500Y402373D01*
X385121Y402718D01*
X387563Y403730D01*
X389661Y405339D01*
X391270Y407437D01*
X392282Y409879D01*
X392627Y412500D01*
X392282Y415121D01*
X391270Y417563D01*
X389661Y419661D01*
X362161Y447160D01*
X360063Y448770D01*
X357621Y449781D01*
X355000Y450127D01*
X355000Y450127D01*
X277940D01*
Y461590D01*
X275127D01*
Y487500D01*
X275127Y487500D01*
X274782Y490121D01*
X273770Y492563D01*
X272161Y494661D01*
X269661Y497161D01*
X267563Y498770D01*
X265121Y499782D01*
X262500Y500127D01*
X259879Y499782D01*
X257437Y498770D01*
X255340Y497161D01*
X255167Y496935D01*
X252627Y497798D01*
Y509510D01*
X299290D01*
Y523859D01*
X394910D01*
Y509510D01*
X467772D01*
X469050Y509410D01*
X521930D01*
X602359Y428980D01*
Y410000D01*
Y333000D01*
X602761Y327894D01*
X603957Y322914D01*
X605917Y318181D01*
X608593Y313814D01*
X611920Y309920D01*
X614420Y307420D01*
X618314Y304093D01*
X622682Y301417D01*
X627413Y299457D01*
X632394Y298261D01*
X637500Y297859D01*
X642606Y298261D01*
X647587Y299457D01*
X652318Y301417D01*
X656686Y304093D01*
X660580Y307420D01*
X663907Y311314D01*
X666583Y315681D01*
X668543Y320414D01*
X669739Y325394D01*
X670141Y330500D01*
X669739Y335606D01*
X668543Y340587D01*
X667641Y342765D01*
Y410000D01*
Y442500D01*
X667641Y442500D01*
X667239Y447606D01*
X666043Y452587D01*
X664083Y457319D01*
X661407Y461686D01*
X658080Y465580D01*
X558530Y565131D01*
X554636Y568457D01*
X550268Y571133D01*
X545536Y573093D01*
X540556Y574289D01*
X535450Y574691D01*
X514290D01*
Y603490D01*
X394910D01*
Y589141D01*
X299290D01*
Y603490D01*
X194231D01*
X160561Y637161D01*
X158463Y638770D01*
X156021Y639781D01*
X155716Y639822D01*
X153400Y640127D01*
D02*
G37*
G36*
X635000Y652641D02*
X629894Y652239D01*
X624913Y651043D01*
X620181Y649083D01*
X615814Y646407D01*
X611920Y643081D01*
X608593Y639186D01*
X605917Y634819D01*
X603957Y630087D01*
X602761Y625106D01*
X602359Y620000D01*
Y617500D01*
X602761Y612394D01*
X603957Y607414D01*
X605917Y602682D01*
X608593Y598314D01*
X611920Y594420D01*
X730677Y475662D01*
X731457Y472413D01*
X733417Y467682D01*
X736093Y463314D01*
X739420Y459420D01*
X743314Y456093D01*
X747682Y453417D01*
X752413Y451457D01*
X757394Y450261D01*
X762500Y449859D01*
X767606Y450261D01*
X772587Y451457D01*
X777318Y453417D01*
X781686Y456093D01*
X785580Y459420D01*
X788907Y463314D01*
X791583Y467682D01*
X793543Y472413D01*
X794739Y477394D01*
X795141Y482500D01*
Y490000D01*
X794739Y495106D01*
X793543Y500087D01*
X791583Y504818D01*
X788907Y509186D01*
X785580Y513080D01*
X664253Y634408D01*
X664083Y634819D01*
X661407Y639186D01*
X658080Y643081D01*
X654186Y646407D01*
X649818Y649083D01*
X645086Y651043D01*
X640106Y652239D01*
X635000Y652641D01*
D02*
G37*
G36*
X445000Y502627D02*
X445000Y502627D01*
X345000D01*
X342379Y502282D01*
X339937Y501270D01*
X337839Y499661D01*
X336230Y497563D01*
X335218Y495121D01*
X334873Y492500D01*
X335218Y489879D01*
X336230Y487437D01*
X337839Y485339D01*
X339937Y483730D01*
X342379Y482718D01*
X345000Y482373D01*
X440805D01*
X466973Y456205D01*
Y442900D01*
X466973Y442900D01*
X467060Y442242D01*
Y418410D01*
X492940D01*
Y461590D01*
X487070D01*
X486882Y463021D01*
X485870Y465463D01*
X484261Y467561D01*
X484260Y467561D01*
X452161Y499661D01*
X450063Y501270D01*
X447621Y502282D01*
X447316Y502322D01*
X445000Y502627D01*
D02*
G37*
G36*
X90000Y382748D02*
X87348Y382398D01*
X84876Y381375D01*
X82754Y379746D01*
X81125Y377624D01*
X80101Y375152D01*
X79752Y372500D01*
X80101Y369848D01*
X81125Y367376D01*
X82754Y365254D01*
X84876Y363625D01*
X87348Y362601D01*
X90000Y362252D01*
X92652Y362601D01*
X95124Y363625D01*
X97246Y365254D01*
X98875Y367376D01*
X99899Y369848D01*
X100248Y372500D01*
X99899Y375152D01*
X98875Y377624D01*
X97246Y379746D01*
X95124Y381375D01*
X92652Y382398D01*
X90000Y382748D01*
D02*
G37*
G36*
Y357747D02*
X87348Y357398D01*
X84876Y356374D01*
X82754Y354746D01*
X81125Y352623D01*
X80101Y350152D01*
X79752Y347500D01*
X80101Y344847D01*
X81125Y342376D01*
X82754Y340253D01*
X84876Y338625D01*
X87348Y337601D01*
X90000Y337252D01*
X92652Y337601D01*
X95124Y338625D01*
X97246Y340253D01*
X98875Y342376D01*
X99899Y344847D01*
X100248Y347500D01*
X99899Y350152D01*
X98875Y352623D01*
X97246Y354746D01*
X95124Y356374D01*
X92652Y357398D01*
X90000Y357747D01*
D02*
G37*
G36*
Y332748D02*
X87348Y332398D01*
X84876Y331375D01*
X82754Y329746D01*
X81125Y327624D01*
X80101Y325152D01*
X79752Y322500D01*
X80101Y319848D01*
X81125Y317376D01*
X82754Y315254D01*
X84876Y313625D01*
X87348Y312602D01*
X90000Y312252D01*
X92652Y312602D01*
X95124Y313625D01*
X97246Y315254D01*
X98875Y317376D01*
X99899Y319848D01*
X100248Y322500D01*
X99899Y325152D01*
X98875Y327624D01*
X97246Y329746D01*
X95124Y331375D01*
X92652Y332398D01*
X90000Y332748D01*
D02*
G37*
G36*
Y307747D02*
X87348Y307398D01*
X84876Y306374D01*
X82754Y304746D01*
X81125Y302624D01*
X80101Y300152D01*
X79752Y297500D01*
X80101Y294848D01*
X81125Y292376D01*
X82754Y290254D01*
X84876Y288625D01*
X87348Y287601D01*
X90000Y287252D01*
X92652Y287601D01*
X95124Y288625D01*
X97246Y290254D01*
X98875Y292376D01*
X99899Y294848D01*
X100248Y297500D01*
X99899Y300152D01*
X98875Y302624D01*
X97246Y304746D01*
X95124Y306374D01*
X92652Y307398D01*
X90000Y307747D01*
D02*
G37*
G36*
X377500Y302627D02*
X374879Y302282D01*
X372437Y301270D01*
X370339Y299661D01*
X368730Y297563D01*
X367718Y295121D01*
X367373Y292500D01*
X367718Y289879D01*
X368730Y287437D01*
X370339Y285339D01*
X380339Y275340D01*
X380339Y275339D01*
X382437Y273730D01*
X384879Y272718D01*
X385549Y272630D01*
X393789Y264389D01*
X393789Y264389D01*
X395887Y262780D01*
X398329Y261768D01*
X400950Y261423D01*
X400950Y261423D01*
X416260D01*
Y238410D01*
X442140D01*
Y281590D01*
X426958D01*
X426300Y281677D01*
X426300Y281677D01*
X405145D01*
X397161Y289661D01*
X395063Y291270D01*
X392621Y292282D01*
X391951Y292370D01*
X384661Y299661D01*
X382563Y301270D01*
X380121Y302282D01*
X377500Y302627D01*
D02*
G37*
G36*
X237500Y308967D02*
X235179Y308661D01*
X233017Y307765D01*
X231160Y306340D01*
X229735Y304483D01*
X228839Y302321D01*
X228533Y300000D01*
X228839Y297679D01*
X229735Y295517D01*
X231160Y293660D01*
X233017Y292235D01*
X233615Y291987D01*
Y248013D01*
X233017Y247765D01*
X231160Y246340D01*
X229735Y244483D01*
X228839Y242321D01*
X228533Y240000D01*
X228839Y237679D01*
X229735Y235517D01*
X231160Y233660D01*
X233017Y232235D01*
X235179Y231339D01*
X237500Y231033D01*
X239821Y231339D01*
X241983Y232235D01*
X243840Y233660D01*
X245265Y235517D01*
X246161Y237679D01*
X246467Y240000D01*
X246161Y242321D01*
X245265Y244483D01*
X243840Y246340D01*
X241983Y247765D01*
X241385Y248013D01*
Y291987D01*
X241983Y292235D01*
X243840Y293660D01*
X245265Y295517D01*
X246161Y297679D01*
X246467Y300000D01*
X246161Y302321D01*
X245265Y304483D01*
X243840Y306340D01*
X241983Y307765D01*
X239821Y308661D01*
X237500Y308967D01*
D02*
G37*
G36*
X429200Y472641D02*
X424094Y472239D01*
X419114Y471043D01*
X414381Y469083D01*
X410014Y466407D01*
X406120Y463080D01*
X402793Y459186D01*
X400117Y454818D01*
X398157Y450087D01*
X396961Y445106D01*
X396559Y440000D01*
Y403300D01*
X396961Y398194D01*
X398157Y393214D01*
X400117Y388481D01*
X402793Y384114D01*
X406120Y380220D01*
X520657Y265683D01*
Y243017D01*
X468160Y190520D01*
X467772Y190490D01*
X394910D01*
Y152787D01*
X353885D01*
Y336987D01*
X354483Y337235D01*
X356340Y338660D01*
X357765Y340517D01*
X358661Y342679D01*
X358967Y345000D01*
X358661Y347321D01*
X357765Y349483D01*
X356340Y351340D01*
X354483Y352765D01*
X352321Y353661D01*
X350000Y353967D01*
X347679Y353661D01*
X345517Y352765D01*
X343660Y351340D01*
X342235Y349483D01*
X341339Y347321D01*
X341033Y345000D01*
X341339Y342679D01*
X342235Y340517D01*
X343660Y338660D01*
X345517Y337235D01*
X346115Y336987D01*
Y249292D01*
X343575Y248075D01*
X342161Y248661D01*
X339840Y248967D01*
X337519Y248661D01*
X335357Y247765D01*
X333500Y246340D01*
X332075Y244483D01*
X331179Y242321D01*
X330873Y240000D01*
X331179Y237679D01*
X332075Y235517D01*
X333500Y233660D01*
X335357Y232235D01*
X335955Y231987D01*
Y208949D01*
X330420Y203413D01*
X329821Y203661D01*
X327500Y203967D01*
X325179Y203661D01*
X323017Y202765D01*
X321160Y201340D01*
X319735Y199483D01*
X318839Y197321D01*
X318533Y195000D01*
X318839Y192679D01*
X319735Y190517D01*
X321160Y188660D01*
X323017Y187235D01*
X325179Y186339D01*
X327500Y186033D01*
X329821Y186339D01*
X331983Y187235D01*
X333840Y188660D01*
X335265Y190517D01*
X336161Y192679D01*
X336467Y195000D01*
X336161Y197321D01*
X335913Y197919D01*
X342587Y204593D01*
X343429Y205853D01*
X343575Y206589D01*
X346115Y206339D01*
Y150293D01*
X345499Y149821D01*
X343890Y147723D01*
X342878Y145281D01*
X342533Y142660D01*
X342878Y140039D01*
X343890Y137597D01*
X345499Y135499D01*
X347597Y133890D01*
X350039Y132878D01*
X352660Y132533D01*
X394910D01*
Y96510D01*
X514290D01*
Y110859D01*
X656000D01*
X661106Y111261D01*
X666086Y112457D01*
X670818Y114417D01*
X675185Y117093D01*
X679080Y120419D01*
X748520Y189859D01*
X752500D01*
X757606Y190261D01*
X762587Y191457D01*
X767318Y193417D01*
X771686Y196093D01*
X775580Y199420D01*
X778907Y203314D01*
X781583Y207682D01*
X783543Y212414D01*
X784739Y217394D01*
X785141Y222500D01*
X784739Y227606D01*
X783543Y232586D01*
X781583Y237318D01*
X778907Y241686D01*
X775580Y245580D01*
X771686Y248907D01*
X767318Y251583D01*
X762587Y253543D01*
X757606Y254739D01*
X752500Y255141D01*
X735000D01*
X729894Y254739D01*
X724913Y253543D01*
X720182Y251583D01*
X715814Y248907D01*
X711920Y245580D01*
X711919Y245580D01*
X642480Y176140D01*
X549420D01*
X548448Y178487D01*
X576378Y206417D01*
X579704Y210311D01*
X582380Y214679D01*
X584340Y219411D01*
X585536Y224391D01*
X585938Y229497D01*
Y279203D01*
X585536Y284309D01*
X584340Y289289D01*
X582380Y294021D01*
X579704Y298388D01*
X576378Y302283D01*
X461841Y416820D01*
Y440000D01*
X461439Y445106D01*
X460243Y450087D01*
X458283Y454818D01*
X455607Y459186D01*
X452280Y463080D01*
X448386Y466407D01*
X444019Y469083D01*
X439286Y471043D01*
X434306Y472239D01*
X429200Y472641D01*
D02*
G37*
G36*
X777500Y45125D02*
X774062Y44786D01*
X770755Y43783D01*
X767708Y42154D01*
X765037Y39963D01*
X762846Y37292D01*
X761217Y34245D01*
X760214Y30938D01*
X759875Y27500D01*
X760214Y24062D01*
X761217Y20755D01*
X762846Y17708D01*
X765037Y15037D01*
X767708Y12845D01*
X770755Y11217D01*
X774062Y10214D01*
X777500Y9875D01*
X780938Y10214D01*
X784245Y11217D01*
X787292Y12845D01*
X789963Y15037D01*
X792154Y17708D01*
X793783Y20755D01*
X794786Y24062D01*
X795125Y27500D01*
X794786Y30938D01*
X793783Y34245D01*
X792154Y37292D01*
X789963Y39963D01*
X787292Y42154D01*
X784245Y43783D01*
X780938Y44786D01*
X777500Y45125D01*
D02*
G37*
G36*
X27500D02*
X24062Y44786D01*
X20755Y43783D01*
X17708Y42154D01*
X15037Y39963D01*
X12845Y37292D01*
X11217Y34245D01*
X10214Y30938D01*
X9875Y27500D01*
X10214Y24062D01*
X11217Y20755D01*
X12845Y17708D01*
X15037Y15037D01*
X17708Y12845D01*
X20755Y11217D01*
X24062Y10214D01*
X27500Y9875D01*
X30938Y10214D01*
X34245Y11217D01*
X37292Y12845D01*
X39963Y15037D01*
X42154Y17708D01*
X43783Y20755D01*
X44786Y24062D01*
X45125Y27500D01*
X44786Y30938D01*
X43783Y34245D01*
X42154Y37292D01*
X39963Y39963D01*
X37292Y42154D01*
X34245Y43783D01*
X30938Y44786D01*
X27500Y45125D01*
D02*
G37*
%LPD*%
D15*
X327500Y195000D02*
X339840Y207340D01*
Y240000D01*
X350000Y148069D02*
X352660Y145409D01*
X350000Y148069D02*
Y345000D01*
X352660Y142660D02*
Y145409D01*
X237500Y240000D02*
Y300000D01*
D16*
X637500Y274500D02*
D03*
D17*
Y330500D02*
D03*
D18*
X762500Y612500D02*
D03*
Y482500D02*
D03*
X752500Y222500D02*
D03*
Y92500D02*
D03*
D19*
X27500Y672500D02*
D03*
Y27500D02*
D03*
X777500D02*
D03*
Y672500D02*
D03*
D20*
X635000Y410000D02*
D03*
Y620000D02*
D03*
D21*
X90000Y272500D02*
D03*
Y297500D02*
D03*
Y322500D02*
D03*
Y347500D02*
D03*
Y372500D02*
D03*
D22*
X345000Y492500D02*
D03*
X55000Y527500D02*
D03*
X205000Y312500D02*
D03*
X339840Y240000D02*
D03*
X382500Y412500D02*
D03*
X262500Y490000D02*
D03*
X242500Y465000D02*
D03*
X352660Y142660D02*
D03*
X360000Y97500D02*
D03*
X350000Y345000D02*
D03*
X217500Y200000D02*
D03*
X237500Y300000D02*
D03*
Y240000D02*
D03*
X327500Y195000D02*
D03*
X377500Y292500D02*
D03*
X130000Y630000D02*
D03*
X215000Y490000D02*
D03*
D23*
X454600Y556500D02*
D03*
Y143500D02*
D03*
X239600Y556500D02*
D03*
X237100Y143500D02*
D03*
D24*
X429200Y440000D02*
D03*
X480000D02*
D03*
X429200Y260000D02*
D03*
X480000D02*
D03*
X265000Y440000D02*
D03*
X214200D02*
D03*
X211700Y260000D02*
D03*
X262500D02*
D03*
D25*
X721500Y92500D02*
X752500D01*
X294141Y53000D02*
X682000D01*
X721500Y92500D01*
X264250Y82891D02*
X294141Y53000D01*
X264250Y82891D02*
Y116350D01*
X635000Y333000D02*
X637500Y330500D01*
X535450Y542050D02*
X635000Y442500D01*
Y617500D02*
X762500Y490000D01*
X635000Y333000D02*
Y410000D01*
Y442500D01*
X469050Y542050D02*
X535450D01*
X762500Y482500D02*
Y490000D01*
X635000Y617500D02*
Y620000D01*
X239600Y556500D02*
X454600D01*
X454600Y556500D01*
X239600Y556500D02*
X239600Y556500D01*
X454600Y556500D02*
X469050Y542050D01*
X429200Y403300D02*
Y440000D01*
Y403300D02*
X553297Y279203D01*
X147460Y379960D02*
X207500Y440000D01*
X182647Y157950D02*
X235350D01*
X147460Y193137D02*
Y379960D01*
Y193137D02*
X182647Y157950D01*
X481750Y143500D02*
X656000D01*
X454600D02*
X481750D01*
X735000Y222500D02*
X752500D01*
X656000Y143500D02*
X735000Y222500D01*
X454600Y143500D02*
X469050Y157950D01*
X481750D01*
X553297Y229497D02*
Y279203D01*
X481750Y157950D02*
X553297Y229497D01*
D26*
X345000Y492500D02*
X445000D01*
X477100Y460400D01*
X142500Y440000D02*
X207500D01*
X55000Y527500D02*
X142500Y440000D01*
X210000Y271550D02*
Y307500D01*
X205000Y312500D02*
X210000Y307500D01*
Y271550D02*
X211700Y269850D01*
Y205800D02*
Y269850D01*
X355000Y440000D02*
X382500Y412500D01*
X265000Y440000D02*
X355000D01*
X239600Y556500D02*
X242500Y553600D01*
Y465000D02*
Y553600D01*
X265000Y440000D02*
Y487500D01*
X262500Y490000D02*
X265000Y487500D01*
X352660Y142660D02*
X453760D01*
X454600Y143500D01*
X264250Y116350D02*
X274050Y106550D01*
X237100Y143500D02*
X264250Y116350D01*
X274050Y106550D02*
X350950D01*
X360000Y97500D01*
X211700Y205800D02*
X217500Y200000D01*
X387500Y282500D02*
X390000D01*
X400950Y271550D02*
X426300D01*
X390000Y282500D02*
X400950Y271550D01*
X377500Y292500D02*
X387500Y282500D01*
X426300Y271550D02*
X429200Y268650D01*
Y260000D02*
Y268650D01*
X226900Y556500D02*
X239600D01*
X153400Y630000D02*
X226900Y556500D01*
X130000Y630000D02*
X153400D01*
X207500Y440000D02*
X214200D01*
X207500D02*
X215000Y447500D01*
Y490000D01*
X477100Y442900D02*
X480000Y440000D01*
X477100Y442900D02*
Y460400D01*
%TF.MD5,e778f90a7acdf8fb38445686d96058a9*%
M02*
