%TF.GenerationSoftware,Altium Limited,Altium Designer,20.0.12 (288)*%
G04 Layer_Color=16711935*
%FSLAX44Y44*%
%MOMM*%
%TF.FileFunction,Soldermask,Bot*%
%TF.Part,Single*%
G01*
G75*
%TA.AperFunction,SMDPad,CuDef*%
%ADD28R,11.6332X9.0932*%
%ADD29R,2.2832X4.0132*%
%TA.AperFunction,ComponentPad*%
%ADD30C,1.4032*%
%ADD31R,1.4032X1.4032*%
%TA.AperFunction,TestPad*%
%ADD32C,4.9000*%
%TA.AperFunction,ViaPad*%
%ADD33C,1.7272*%
%TA.AperFunction,ComponentPad*%
%ADD34C,3.2032*%
%ADD35C,1.7272*%
%TA.AperFunction,ViaPad*%
%ADD36C,1.4732*%
D28*
X454600Y556500D02*
D03*
Y143500D02*
D03*
X239600Y556500D02*
D03*
X237100Y143500D02*
D03*
D29*
X429200Y440000D02*
D03*
X480000D02*
D03*
X429200Y260000D02*
D03*
X480000D02*
D03*
X265000Y440000D02*
D03*
X214200D02*
D03*
X211700Y260000D02*
D03*
X262500D02*
D03*
D30*
X637500Y274500D02*
D03*
D31*
Y330500D02*
D03*
D32*
X762500Y612500D02*
D03*
Y482500D02*
D03*
X752500Y222500D02*
D03*
Y92500D02*
D03*
D33*
X27500Y672500D02*
D03*
Y27500D02*
D03*
X777500D02*
D03*
Y672500D02*
D03*
D34*
X635000Y410000D02*
D03*
Y620000D02*
D03*
D35*
X90000Y272500D02*
D03*
Y297500D02*
D03*
Y322500D02*
D03*
Y347500D02*
D03*
Y372500D02*
D03*
D36*
X345000Y492500D02*
D03*
X55000Y527500D02*
D03*
X205000Y312500D02*
D03*
X339840Y240000D02*
D03*
X382500Y412500D02*
D03*
X262500Y490000D02*
D03*
X242500Y465000D02*
D03*
X352660Y142660D02*
D03*
X360000Y97500D02*
D03*
X350000Y345000D02*
D03*
X217500Y200000D02*
D03*
X237500Y300000D02*
D03*
Y240000D02*
D03*
X327500Y195000D02*
D03*
X377500Y292500D02*
D03*
X130000Y630000D02*
D03*
X215000Y490000D02*
D03*
%TF.MD5,9e03b2b2189aeea920955beae72ea900*%
M02*
