%TF.GenerationSoftware,Altium Limited,Altium Designer,20.0.12 (288)*%
G04 Layer_Color=255*
%FSLAX44Y44*%
%MOMM*%
%TF.FileFunction,Pads,Bot*%
%TF.Part,Single*%
G01*
G75*
%TA.AperFunction,ComponentPad*%
%ADD16C,1.2000*%
%ADD17R,1.2000X1.2000*%
%TA.AperFunction,TestPad*%
%ADD18C,4.5000*%
%TA.AperFunction,ViaPad*%
%ADD19C,1.5240*%
%TA.AperFunction,ComponentPad*%
%ADD20C,3.0000*%
%ADD21C,1.5240*%
%TA.AperFunction,SMDPad,CuDef*%
%ADD23R,11.4300X8.8900*%
%ADD24R,2.0800X3.8100*%
D16*
X637500Y274500D02*
D03*
D17*
Y330500D02*
D03*
D18*
X762500Y612500D02*
D03*
Y482500D02*
D03*
X752500Y222500D02*
D03*
Y92500D02*
D03*
D19*
X27500Y672500D02*
D03*
Y27500D02*
D03*
X777500D02*
D03*
Y672500D02*
D03*
D20*
X635000Y410000D02*
D03*
Y620000D02*
D03*
D21*
X90000Y272500D02*
D03*
Y297500D02*
D03*
Y322500D02*
D03*
Y347500D02*
D03*
Y372500D02*
D03*
D23*
X454600Y556500D02*
D03*
Y143500D02*
D03*
X239600Y556500D02*
D03*
X237100Y143500D02*
D03*
D24*
X429200Y440000D02*
D03*
X480000D02*
D03*
X429200Y260000D02*
D03*
X480000D02*
D03*
X265000Y440000D02*
D03*
X214200D02*
D03*
X211700Y260000D02*
D03*
X262500D02*
D03*
%TF.MD5,444410536114dcbde73e5a781da58608*%
M02*
